<svg xmlns="http://www.w3.org/2000/svg" xmlns:xlink="http://www.w3.org/1999/xlink" xmlns:lucid="lucid" width="1207" height="1326.53"><g transform="translate(-100.00000000000003 0)" lucid:page-tab-id="0_0"><path d="M923.15 468.3c0-1.66 1.34-3 3-3h297.64c1.65 0 3 1.34 3 3v389.73c0 1.65-1.35 3-3 3H926.14c-1.66 0-3-1.35-3-3z" stroke="#fff" stroke-width="2" fill="#f0f0f0"/><use xlink:href="#a" transform="matrix(1,0,0,1,923.1515674269394,465.3014969746663) translate(20.96 39.5546875)"/><use xlink:href="#b" transform="matrix(1,0,0,1,923.1515674269394,465.3014969746663) translate(89.06546875000001 39.5546875)"/><use xlink:href="#c" transform="matrix(1,0,0,1,923.1515674269394,465.3014969746663) translate(184.41703125 39.5546875)"/><path d="M976.16 538.16h197.62V592H976.16z" stroke="#000" stroke-opacity="0" stroke-width="2" fill="#fff"/><use xlink:href="#d" transform="matrix(1,0,0,1,981.163514403187,543.1586796201902) translate(1.77197265625 28.2314453125)"/><use xlink:href="#e" transform="matrix(1,0,0,1,981.163514403187,543.1586796201902) translate(98.54833984375 28.2314453125)"/><use xlink:href="#f" transform="matrix(1,0,0,1,981.163514403187,543.1586796201902) translate(141.06103515625 28.2314453125)"/><path d="M976.16 614.92h197.62v53.86H976.16z" stroke="#000" stroke-opacity="0" stroke-width="2" fill="#fff"/><use xlink:href="#g" transform="matrix(1,0,0,1,981.163514403187,619.924635153943) translate(55.05126953125 28.2314453125)"/><use xlink:href="#h" transform="matrix(1,0,0,1,981.163514403187,619.924635153943) translate(103.47900390625 28.2314453125)"/><path d="M976.16 691.78h197.62v53.85H976.16z" stroke="#000" stroke-opacity="0" stroke-width="2" fill="#fff"/><use xlink:href="#i" transform="matrix(1,0,0,1,981.163514403187,696.7780590121577) translate(63.76123046875 28.2314453125)"/><use xlink:href="#j" transform="matrix(1,0,0,1,981.163514403187,696.7780590121577) translate(104.34912109375 28.2314453125)"/><path d="M976.16 768.63h197.62v53.85H976.16z" stroke="#000" stroke-opacity="0" stroke-width="2" fill="#fff"/><use xlink:href="#k" transform="matrix(1,0,0,1,981.163514403187,773.6314828703723) translate(29.20263671875 28.2314453125)"/><use xlink:href="#h" transform="matrix(1,0,0,1,981.163514403187,773.6314828703723) translate(129.32763671875 28.2314453125)"/><path d="M1192.28 565.1h42.6v-.02H1295" stroke="#000" stroke-width="2" fill="none"/><path d="M1177.02 565.1l14.26-4.65v9.27z" stroke="#000" stroke-width="2"/><path d="M1294.97 565.08h1.03" stroke="#000" stroke-width="2" fill="none"/><path d="M120 412.95c0-1.66 1.34-3 3-3h297.64c1.66 0 3 1.34 3 3v233.9c0 1.66-1.34 3-3 3H123c-1.66 0-3-1.34-3-3z" stroke="#fff" stroke-width="2" fill="#f0f0f0"/><use xlink:href="#l" transform="matrix(1,0,0,1,120.00000000000003,409.9471180095842) translate(20.96 39.5546875)"/><path d="M173 480.08h197.63v53.85H173z" stroke="#000" stroke-opacity="0" stroke-width="2" fill="#fff"/><use xlink:href="#m" transform="matrix(1,0,0,1,178.0119469762476,485.08022660716813) translate(57.86376953125 28.2314453125)"/><path d="M173 559.77h197.63v53.85H173z" stroke="#000" stroke-opacity="0" stroke-width="2" fill="#fff"/><use xlink:href="#n" transform="matrix(1,0,0,1,178.0119469762476,564.7687082825609) translate(58.509765625 28.2314453125)"/><path d="M160 781.65c0-1.66 1.34-3 3-3h297.64c1.66 0 3 1.34 3 3V932.9c0 1.65-1.34 3-3 3H163c-1.66 0-3-1.35-3-3z" stroke="#fff" stroke-width="2" fill="#f0f0f0"/><use xlink:href="#o" transform="matrix(1,0,0,1,159.99999999999957,778.6517525316373) translate(20.96 39.5546875)"/><use xlink:href="#p" transform="matrix(1,0,0,1,159.99999999999957,778.6517525316373) translate(139.856484375 39.5546875)"/><path d="M140 761.65c0-1.66 1.34-3 3-3h297.64c1.66 0 3 1.34 3 3V912.9c0 1.65-1.34 3-3 3H143c-1.66 0-3-1.35-3-3z" stroke="#fff" stroke-width="2" fill="#f0f0f0"/><use xlink:href="#o" transform="matrix(1,0,0,1,140.00000000000003,758.6517525316373) translate(20.96 39.5546875)"/><use xlink:href="#p" transform="matrix(1,0,0,1,140.00000000000003,758.6517525316373) translate(139.856484375 39.5546875)"/><path d="M120 741.65c0-1.66 1.34-3 3-3h297.64c1.66 0 3 1.34 3 3V892.9c0 1.65-1.34 3-3 3H123c-1.66 0-3-1.35-3-3z" stroke="#fff" stroke-width="2" fill="#f0f0f0"/><use xlink:href="#o" transform="matrix(1,0,0,1,120.00000000000003,738.6517525316373) translate(20.96 39.5546875)"/><use xlink:href="#p" transform="matrix(1,0,0,1,120.00000000000003,738.6517525316373) translate(139.856484375 39.5546875)"/><path d="M172.37 808.64H370v53.85H172.36z" stroke="#000" stroke-opacity="0" stroke-width="2" fill="#fff"/><use xlink:href="#q" transform="matrix(1,0,0,1,177.3690054047047,813.6404087271005) translate(41.19970703125 28.2314453125)"/><path d="M921.33 23c0-1.66 1.35-3 3-3h297.65c1.65 0 3 1.34 3 3v389.72c0 1.66-1.35 3-3 3H924.33c-1.65 0-3-1.34-3-3z" stroke="#fff" stroke-width="2" fill="#f0f0f0"/><use xlink:href="#a" transform="matrix(1,0,0,1,921.3333333333317,20) translate(20.96 39.5546875)"/><use xlink:href="#b" transform="matrix(1,0,0,1,921.3333333333317,20) translate(89.06546875000001 39.5546875)"/><use xlink:href="#c" transform="matrix(1,0,0,1,921.3333333333317,20) translate(184.41703125 39.5546875)"/><path d="M974.35 92.86h197.6v53.85h-197.6z" stroke="#000" stroke-opacity="0" stroke-width="2" fill="#fff"/><use xlink:href="#d" transform="matrix(1,0,0,1,979.3452803095793,97.85718264552382) translate(1.77197265625 28.2314453125)"/><use xlink:href="#e" transform="matrix(1,0,0,1,979.3452803095793,97.85718264552382) translate(98.54833984375 28.2314453125)"/><use xlink:href="#f" transform="matrix(1,0,0,1,979.3452803095793,97.85718264552382) translate(141.06103515625 28.2314453125)"/><path d="M974.35 169.62h197.6v53.86h-197.6z" stroke="#000" stroke-opacity="0" stroke-width="2" fill="#fff"/><use xlink:href="#g" transform="matrix(1,0,0,1,979.3452803095793,174.62313817927634) translate(55.05126953125 28.2314453125)"/><use xlink:href="#h" transform="matrix(1,0,0,1,979.3452803095793,174.62313817927634) translate(103.47900390625 28.2314453125)"/><path d="M976.16 246.48h197.62v53.85H976.16z" stroke="#000" stroke-opacity="0" stroke-width="2" fill="#fff"/><use xlink:href="#i" transform="matrix(1,0,0,1,981.163514403187,251.47656203749102) translate(63.76123046875 28.2314453125)"/><use xlink:href="#j" transform="matrix(1,0,0,1,981.163514403187,251.47656203749102) translate(104.34912109375 28.2314453125)"/><path d="M974.35 323.33h197.6v53.85h-197.6z" stroke="#000" stroke-opacity="0" stroke-width="2" fill="#fff"/><use xlink:href="#k" transform="matrix(1,0,0,1,979.3452803095793,328.3299858957057) translate(29.20263671875 28.2314453125)"/><use xlink:href="#h" transform="matrix(1,0,0,1,979.3452803095793,328.3299858957057) translate(129.32763671875 28.2314453125)"/><path d="M924.2 913.8c0-1.65 1.33-3 3-3h297.63c1.66 0 3 1.35 3 3v389.73c0 1.66-1.34 3-3 3H927.2c-1.67 0-3-1.34-3-3z" stroke="#fff" stroke-width="2" fill="#f0f0f0"/><use xlink:href="#a" transform="matrix(1,0,0,1,924.1903917617888,910.8062827225119) translate(20.96 39.5546875)"/><use xlink:href="#b" transform="matrix(1,0,0,1,924.1903917617888,910.8062827225119) translate(89.06546875000001 39.5546875)"/><use xlink:href="#c" transform="matrix(1,0,0,1,924.1903917617888,910.8062827225119) translate(184.41703125 39.5546875)"/><path d="M977.2 983.66h197.62v53.86H977.2z" stroke="#000" stroke-opacity="0" stroke-width="2" fill="#fff"/><use xlink:href="#d" transform="matrix(1,0,0,1,982.2023387380364,988.6634653680358) translate(1.77197265625 28.2314453125)"/><use xlink:href="#e" transform="matrix(1,0,0,1,982.2023387380364,988.6634653680358) translate(98.54833984375 28.2314453125)"/><use xlink:href="#f" transform="matrix(1,0,0,1,982.2023387380364,988.6634653680358) translate(141.06103515625 28.2314453125)"/><path d="M977.2 1060.43h197.62v53.85H977.2z" stroke="#000" stroke-opacity="0" stroke-width="2" fill="#fff"/><use xlink:href="#g" transform="matrix(1,0,0,1,982.2023387380364,1065.429420901788) translate(55.05126953125 28.2314453125)"/><use xlink:href="#h" transform="matrix(1,0,0,1,982.2023387380364,1065.429420901788) translate(103.47900390625 28.2314453125)"/><path d="M977.2 1137.28h197.62v53.86H977.2z" stroke="#000" stroke-opacity="0" stroke-width="2" fill="#fff"/><use xlink:href="#i" transform="matrix(1,0,0,1,982.2023387380364,1142.2828447600027) translate(63.76123046875 28.2314453125)"/><use xlink:href="#j" transform="matrix(1,0,0,1,982.2023387380364,1142.2828447600027) translate(104.34912109375 28.2314453125)"/><path d="M977.2 1214.14h197.62V1268H977.2z" stroke="#000" stroke-opacity="0" stroke-width="2" fill="#fff"/><use xlink:href="#k" transform="matrix(1,0,0,1,982.2023387380364,1219.1362686182174) translate(29.20263671875 28.2314453125)"/><use xlink:href="#h" transform="matrix(1,0,0,1,982.2023387380364,1219.1362686182174) translate(129.32763671875 28.2314453125)"/><path d="M495.13 412.85c0-1.66 1.34-3 3-3h297.64c1.66 0 3 1.34 3 3V729.7c0 1.67-1.34 3-3 3H498.13c-1.66 0-3-1.33-3-3z" stroke="#fff" stroke-width="2" fill="#f0f0f0"/><use xlink:href="#r" transform="matrix(1,0,0,1,495.13121748691356,409.84547362299463) translate(20.96 39.5546875)"/><use xlink:href="#s" transform="matrix(1,0,0,1,495.13121748691356,409.84547362299463) translate(76.20414062500001 39.5546875)"/><path d="M548.14 482.28h197.62v53.85H548.14z" stroke="#000" stroke-opacity="0" stroke-width="2" fill="#fff"/><use xlink:href="#g" transform="matrix(1,0,0,1,553.1431644631612,487.2803464519686) translate(55.05126953125 28.2314453125)"/><use xlink:href="#h" transform="matrix(1,0,0,1,553.1431644631612,487.2803464519686) translate(103.47900390625 28.2314453125)"/><path d="M548.14 563.1h197.62v53.86H548.14z" stroke="#000" stroke-opacity="0" stroke-width="2" fill="#fff"/><use xlink:href="#i" transform="matrix(1,0,0,1,553.1431644631612,568.1081242297464) translate(63.76123046875 28.2314453125)"/><use xlink:href="#j" transform="matrix(1,0,0,1,553.1431644631612,568.1081242297464) translate(104.34912109375 28.2314453125)"/><path d="M548.14 647.03h197.62v53.86H548.14z" stroke="#000" stroke-opacity="0" stroke-width="2" fill="#fff"/><use xlink:href="#k" transform="matrix(1,0,0,1,553.1431644631612,652.0342483522255) translate(29.20263671875 28.2314453125)"/><use xlink:href="#h" transform="matrix(1,0,0,1,553.1431644631612,652.0342483522255) translate(129.32763671875 28.2314453125)"/><path d="M746.76 509.2h113.3V196.56h95.78" stroke="#666" stroke-width="2" fill="none"/><path d="M746.8 510.2h-1.04v-2h1.03z" fill="#666"/><path d="M971.1 196.55l-14.26 4.64v-9.3z" stroke="#666" stroke-width="2" fill="#666"/><path d="M746.76 509.2h114.2v132.65h96.7" stroke="#666" stroke-width="2" fill="none"/><path d="M746.8 510.2h-1.04v-2h1.03z" fill="#666"/><path d="M972.93 641.85l-14.27 4.64v-9.28z" stroke="#666" stroke-width="2" fill="#666"/><path d="M746.76 509.2h114.72v578.16h97.22" stroke="#666" stroke-width="2" fill="none"/><path d="M746.8 510.2h-1.04v-2h1.03z" fill="#666"/><path d="M973.97 1087.36L959.7 1092v-9.28z" stroke="#666" stroke-width="2" fill="#666"/><path d="M746.76 590.03h114.2V718.7h96.7" stroke="#666" stroke-width="2" fill="none"/><path d="M746.8 591.03h-1.04v-2h1.03z" fill="#666"/><path d="M972.93 718.7l-14.27 4.64v-9.27z" stroke="#666" stroke-width="2" fill="#666"/><path d="M746.76 590.03h114.2V273.4h96.7" stroke="#666" stroke-width="2" fill="none"/><path d="M746.8 591.03h-1.04v-2h1.03z" fill="#666"/><path d="M972.93 273.4l-14.27 4.64v-9.27z" stroke="#666" stroke-width="2" fill="#666"/><path d="M746.76 590.03h114.72v574.18h97.22" stroke="#666" stroke-width="2" fill="none"/><path d="M746.8 591.03h-1.04v-2h1.03z" fill="#666"/><path d="M973.97 1164.2l-14.27 4.64v-9.27z" stroke="#666" stroke-width="2" fill="#666"/><path d="M746.76 673.96h114.72v567.1h97.22" stroke="#666" stroke-width="2" fill="none"/><path d="M746.8 674.96h-1.04v-2h1.03z" fill="#666"/><path d="M973.97 1241.06l-14.27 4.64v-9.27z" stroke="#666" stroke-width="2" fill="#666"/><path d="M746.76 673.96h113.3v-323.7h95.78" stroke="#666" stroke-width="2" fill="none"/><path d="M746.8 674.96h-1.04v-2h1.03z" fill="#666"/><path d="M971.1 350.26l-14.26 4.63v-9.28z" stroke="#666" stroke-width="2" fill="#666"/><path d="M746.76 673.96h114.2v121.6h96.7" stroke="#666" stroke-width="2" fill="none"/><path d="M746.8 674.96h-1.04v-2h1.03z" fill="#666"/><path d="M972.93 795.56l-14.27 4.63v-9.28z" stroke="#666" stroke-width="2" fill="#666"/><path d="M371.63 586.7h87.76v-.1h70.24" stroke="#666" stroke-width="2" fill="none"/><path d="M371.66 587.7h-1.03v-2h1.03z" fill="#666"/><path d="M544.9 586.6l-14.26 4.63v-9.27z" stroke="#666" stroke-width="2" fill="#666"/><path d="M371.63 507h87.76v-.1h70.24" stroke="#666" stroke-width="2" fill="none"/><path d="M371.66 508h-1.03v-2h1.03z" fill="#666"/><path d="M544.9 506.9l-14.26 4.64v-9.27z" stroke="#666" stroke-width="2" fill="#666"/><path d="M371 835.57h88.07v-161.6h70.57" stroke="#666" stroke-width="2" fill="none"/><path d="M371 836.57h-1v-2h1z" fill="#666"/><path d="M544.9 673.96l-14.26 4.64v-9.27z" stroke="#666" stroke-width="2" fill="#666"/><path d="M1193.32 1010.6H1296V119.77h-105.53" stroke="#000" stroke-width="2" fill="none"/><path d="M1178.06 1010.6l14.26-4.65v9.28zM1175.2 119.78l14.27-4.63v9.27z" stroke="#000" stroke-width="2"/><defs><path fill="#4f4f4f" d="M658-217c127 0 227-49 227-165 0-57-21-98-60-130-79-64-370-142-463-196-162-95-248-210-248-361 0-280 246-403 537-407 213-3 383 84 467 216 45 69 68 147 68 234H886c0-139-96-211-240-211-129 0-232 55-232 169 0 47 24 87 72 119s117 62 210 90c171 51 295 115 373 191s117 171 117 284c-2 272-237 411-528 404C331 13 78-135 69-458h301c0 161 96 241 288 241" id="t"/><path fill="#4f4f4f" d="M1006-631H430v390h676V0H130v-1456h974v243H430v347h576v235" id="u"/><path fill="#4f4f4f" d="M1314 0h-300L430-958V0H130v-1456h300l585 960v-960h299V0" id="v"/><path fill="#4f4f4f" d="M416-495c-3 181 88 274 258 274 169 0 257-89 257-266v-969h301v959c3 324-227 517-558 517-328 0-557-188-558-506v-970h300v961" id="w"/><g id="a"><use transform="matrix(0.009765625,0,0,0.009765625,0,0)" xlink:href="#t"/><use transform="matrix(0.009765625,0,0,0.009765625,12.294921875,0)" xlink:href="#u"/><use transform="matrix(0.009765625,0,0,0.009765625,23.544921875,0)" xlink:href="#v"/><use transform="matrix(0.009765625,0,0,0.009765625,37.666015625,0)" xlink:href="#t"/><use transform="matrix(0.009765625,0,0,0.009765625,49.9609375,0)" xlink:href="#w"/></g><path fill="#4f4f4f" d="M1212-428C1211-131 1004 0 696 0H130v-1456h510c318-1 539 108 539 399 0 155-89 264-208 308 141 33 242 151 241 321zM687-241c132 2 225-65 225-190 0-133-69-203-207-203H430v393h257zm192-786c0-145-86-186-239-186H430v367h222c151-3 227-63 227-181" id="x"/><path fill="#4f4f4f" d="M952-300H426L326 0H7l542-1456h278L1372 0h-319zM507-543h364l-183-545" id="y"/><path fill="#4f4f4f" d="M687-225c189-1 272-84 286-260h300c-19 311-251 505-586 505C296 20 86-277 86-686c0-466 174-782 605-790 340-6 557 198 584 514H975c-15-183-92-268-284-268-100 0-173 38-225 108-63 84-76 264-76 443 0 157 24 272 72 345s122 109 225 109" id="z"/><path fill="#4f4f4f" d="M586-584L430-416V0H130v-1456h300v660c161-226 335-440 503-660h369L785-809 1317 0H960" id="A"/><path fill="#4f4f4f" d="M130 0v-1456h448c435 14 673 299 665 762-5 285-130 500-319 606C822-31 708 0 581 0H130zm809-685c9-311-79-526-361-528H430v972h145c252-2 356-181 364-444" id="B"/><g id="b"><use transform="matrix(0.009765625,0,0,0.009765625,0,0)" xlink:href="#x"/><use transform="matrix(0.009765625,0,0,0.009765625,12.763671875,0)" xlink:href="#y"/><use transform="matrix(0.009765625,0,0,0.009765625,26.220703125,0)" xlink:href="#z"/><use transform="matrix(0.009765625,0,0,0.009765625,39.306640625,0)" xlink:href="#A"/><use transform="matrix(0.009765625,0,0,0.009765625,52.001953125,0)" xlink:href="#u"/><use transform="matrix(0.009765625,0,0,0.009765625,63.251953125,0)" xlink:href="#v"/><use transform="matrix(0.009765625,0,0,0.009765625,77.373046875,0)" xlink:href="#B"/></g><path fill="#4f4f4f" d="M1248-1138c106 220 104 603 2 820-91 195-274 338-542 338C281 20 86-300 86-759c0-291 115-515 296-629 182-114 467-115 648 0 94 60 166 141 218 250zM940-344c111-153 110-617 0-765-57-77-133-119-234-119s-177 41-233 118c-64 88-83 240-83 415 0 149 27 264 82 346s133 123 236 123c101 0 176-40 232-118" id="C"/><g id="c"><use transform="matrix(0.009765625,0,0,0.009765625,0,0)" xlink:href="#v"/><use transform="matrix(0.009765625,0,0,0.009765625,14.12109375,0)" xlink:href="#C"/><use transform="matrix(0.009765625,0,0,0.009765625,27.9296875,0)" xlink:href="#B"/><use transform="matrix(0.009765625,0,0,0.009765625,40.927734375,0)" xlink:href="#u"/></g><path fill="#5380d1" d="M805-686c-5-136-57-236-193-236-128 0-189 96-196 236h389zm223 627C927-5 807 23 651 20c-359-7-549-205-549-571 0-358 158-588 508-588 318 0 476 187 482 508v148H410c8 169 89 274 262 276 149 2 255-38 356-88v236" id="D"/><path fill="#5380d1" d="M1321-895c-168 0-201 148-201 334V0H815v-653c-1-138-28-242-149-242-184 0-201 180-201 369V0H160v-1118h233l41 143h17c57-100 155-164 307-164 159 0 265 54 319 164h25c57-100 159-164 311-164 256 0 363 139 363 410V0h-306v-653c-1-138-28-242-149-242" id="E"/><path fill="#5380d1" d="M465-973c57-94 141-166 291-166 214 0 308 148 358 328 38 137 38 366 0 503-50 184-148 328-366 328-142 0-223-62-283-143h-21L393 0H160v-1556h305c-2 197 6 400-12 583h12zm0 377c0 188 9 369 190 369 61 0 102-31 133-87 54-98 55-402 0-498-31-54-73-83-135-83-161 1-188 138-188 299" id="F"/><path fill="#5380d1" d="M780-145C722-51 639 20 489 20c-296 0-387-264-387-577 0-260 69-456 235-545 48-26 102-37 161-37 150 1 235 72 295 164h10c-34-168-20-382-23-581h305V0H852l-59-145h-13zm21-377c0-193-14-368-203-369-64 0-108 31-141 87-57 98-58 402 1 498 33 54 77 83 142 83 166 0 201-133 201-299" id="G"/><g id="d"><use transform="matrix(0.0087890625,0,0,0.0087890625,0,0)" xlink:href="#D"/><use transform="matrix(0.0087890625,0,0,0.0087890625,10.458984375,0)" xlink:href="#E"/><use transform="matrix(0.0087890625,0,0,0.0087890625,27.4130859375,0)" xlink:href="#F"/><use transform="matrix(0.0087890625,0,0,0.0087890625,38.35546875,0)" xlink:href="#D"/><use transform="matrix(0.0087890625,0,0,0.0087890625,48.814453125,0)" xlink:href="#G"/><use transform="matrix(0.0087890625,0,0,0.0087890625,59.7568359375,0)" xlink:href="#G"/><use transform="matrix(0.0087890625,0,0,0.0087890625,70.69921875,0)" xlink:href="#D"/><use transform="matrix(0.0087890625,0,0,0.0087890625,81.158203125,0)" xlink:href="#G"/></g><path fill="#5380d1" d="M498-350c-2 81 42 126 116 127 66 1 116-17 168-35v227C722-1 631 20 537 20c-238 0-345-128-344-370v-539H47v-129l168-102 88-236h195v238h272v229H498v539" id="H"/><path fill="#5380d1" d="M924-53c-85 42-173 74-299 73-359-3-522-207-523-573-1-378 152-588 523-586 127 1 241 34 331 80l-88 232c-74-31-150-66-243-66-173 0-211 143-211 338 0 193 38 328 207 328 128 0 209-38 303-80v254" id="I"/><g id="e"><use transform="matrix(0.0087890625,0,0,0.0087890625,0,0)" xlink:href="#D"/><use transform="matrix(0.0087890625,0,0,0.0087890625,10.458984375,0)" xlink:href="#H"/><use transform="matrix(0.0087890625,0,0,0.0087890625,17.912109375,0)" xlink:href="#I"/><use transform="matrix(0.0087890625,0,0,0.0087890625,26.89453125,0)" xlink:href="#G"/></g><path fill="#5380d1" d="M518-913c-85-3-135 42-110 117 96 111 309 141 412 247 51 53 87 114 85 217C900-74 714 17 451 20 309 22 197-1 100-45v-252c100 47 213 89 351 94 97 3 174-39 147-137-20-36-53-53-98-78C329-513 87-555 98-827c9-232 182-312 420-312 155 0 260 38 375 92l-92 216c-88-39-170-78-283-82" id="J"/><path fill="#5380d1" d="M612-893c-166 0-198 142-198 332 0 111 16 195 47 251s82 85 153 85c166 0 199-148 199-336 0-191-32-332-201-332zM102-561c0-355 164-578 514-578 341 0 508 230 508 578 0 356-164 581-514 581-341 0-508-232-508-581" id="K"/><path fill="#5380d1" d="M451-950c59-103 132-188 292-189 34 0 70 3 97 9v286c-30-7-71-10-107-10-182 1-269 99-268 285V0H160v-1118h231l45 168h15" id="L"/><g id="f"><use transform="matrix(0.0087890625,0,0,0.0087890625,0,0)" xlink:href="#J"/><use transform="matrix(0.0087890625,0,0,0.0087890625,8.6572265625,0)" xlink:href="#H"/><use transform="matrix(0.0087890625,0,0,0.0087890625,16.1103515625,0)" xlink:href="#K"/><use transform="matrix(0.0087890625,0,0,0.0087890625,26.89453125,0)" xlink:href="#L"/><use transform="matrix(0.0087890625,0,0,0.0087890625,34.7080078125,0)" xlink:href="#D"/></g><path fill="#5380d1" d="M1300 0H991v-631H494V0H184v-1462h310v573h497v-573h309V0" id="M"/><path fill="#5380d1" d="M717 0H408v-1204H41v-258h1042v258H717V0" id="N"/><path fill="#5380d1" d="M819-995c0-183-129-224-325-213v434c196 9 325-35 325-221zm-229-467c333 2 543 129 543 456 0 360-248 501-639 486V0H184v-1462h406" id="O"/><g id="g"><use transform="matrix(0.0087890625,0,0,0.0087890625,0,0)" xlink:href="#M"/><use transform="matrix(0.0087890625,0,0,0.0087890625,13.0517578125,0)" xlink:href="#N"/><use transform="matrix(0.0087890625,0,0,0.0087890625,23.1064453125,0)" xlink:href="#N"/><use transform="matrix(0.0087890625,0,0,0.0087890625,32.9853515625,0)" xlink:href="#O"/></g><path fill="#5380d1" d="M1018 0L918-348H414L313 0H0l475-1468h379L1331 0h-313zM846-608c-60-218-134-421-180-654-48 230-116 438-177 654h357" id="P"/><path fill="#5380d1" d="M731 0H66v-176l178-82v-946l-178-82v-176h665v176l-178 82v946l178 82V0" id="Q"/><g id="h"><use transform="matrix(0.0087890625,0,0,0.0087890625,0,0)" xlink:href="#P"/><use transform="matrix(0.0087890625,0,0,0.0087890625,11.6982421875,0)" xlink:href="#O"/><use transform="matrix(0.0087890625,0,0,0.0087890625,22.46484375,0)" xlink:href="#Q"/></g><path fill="#5380d1" d="M1014 0c-68-300-129-595-189-905h-6C763-591 702-296 629 0H301L0-1118h303c64 289 139 565 176 882h6c30-323 113-591 174-882h336c58 292 138 561 168 882h6c38-316 117-594 183-882h299L1346 0h-332" id="R"/><g id="i"><use transform="matrix(0.0087890625,0,0,0.0087890625,0,0)" xlink:href="#R"/><use transform="matrix(0.0087890625,0,0,0.0087890625,14.5107421875,0)" xlink:href="#D"/><use transform="matrix(0.0087890625,0,0,0.0087890625,24.9697265625,0)" xlink:href="#F"/></g><path fill="#5380d1" d="M735-240c186-1 248-112 248-305v-917h309v946c-10 350-208 536-565 536-354 0-553-190-553-540v-942h309v919c-1 189 65 304 252 303" id="S"/><g id="j"><use transform="matrix(0.0087890625,0,0,0.0087890625,0,0)" xlink:href="#S"/><use transform="matrix(0.0087890625,0,0,0.0087890625,12.884765625,0)" xlink:href="#Q"/></g><path fill="#5380d1" d="M1546 0h-352c-84-358-190-694-246-1079C894-692 787-359 705 0H352L0-1462h305c81 400 172 791 238 1206 19-128 37-267 67-387l203-819h272c93 399 210 775 271 1206 64-417 157-805 237-1206h305" id="T"/><path fill="#5380d1" d="M575-1225c-123-5-198 106-149 217 37 85 130 114 217 164 168 97 342 180 342 438 0 295-202 426-504 426-152 0-284-33-387-88v-288c118 53 234 120 398 120 115 0 190-43 190-155 0-146-139-181-242-240-159-90-329-188-329-436 0-313 235-447 565-409 116 14 211 53 303 96l-100 241c-93-41-177-81-304-86" id="U"/><path fill="#5380d1" d="M453-608l112-170 273-340h344L778-633 1208 0H856L584-430l-119 82V0H160v-1556h305v694l-16 254h4" id="V"/><g id="k"><use transform="matrix(0.0087890625,0,0,0.0087890625,0,0)" xlink:href="#T"/><use transform="matrix(0.0087890625,0,0,0.0087890625,16.3212890625,0)" xlink:href="#D"/><use transform="matrix(0.0087890625,0,0,0.0087890625,26.7802734375,0)" xlink:href="#F"/><use transform="matrix(0.0087890625,0,0,0.0087890625,37.72265625,0)" xlink:href="#U"/><use transform="matrix(0.0087890625,0,0,0.0087890625,47.1533203125,0)" xlink:href="#K"/><use transform="matrix(0.0087890625,0,0,0.0087890625,57.9375,0)" xlink:href="#I"/><use transform="matrix(0.0087890625,0,0,0.0087890625,66.919921875,0)" xlink:href="#V"/><use transform="matrix(0.0087890625,0,0,0.0087890625,77.537109375,0)" xlink:href="#D"/><use transform="matrix(0.0087890625,0,0,0.0087890625,87.99609375,0)" xlink:href="#H"/></g><path fill="#4f4f4f" d="M1264-420l196-1036h299L1436 0h-302L897-974 660 0H358L35-1456h299L531-422l240-1034h254" id="W"/><path fill="#4f4f4f" d="M1209-1016c0 219-100 334-260 407l315 595V0H942L669-533H430V0H130v-1456h541c318-3 538 141 538 440zm-300 24c-1-144-85-221-238-221H430v437h242c144 2 238-77 237-216" id="X"/><path fill="#4f4f4f" d="M1226-1213H780V0H480v-1213H40v-243h1186v243" id="Y"/><path fill="#4f4f4f" d="M449 0H149v-1456h300V0" id="Z"/><g id="l"><use transform="matrix(0.009765625,0,0,0.009765625,0,0)" xlink:href="#W"/><use transform="matrix(0.009765625,0,0,0.009765625,17.490234375,0)" xlink:href="#C"/><use transform="matrix(0.009765625,0,0,0.009765625,31.298828125,0)" xlink:href="#X"/><use transform="matrix(0.009765625,0,0,0.009765625,44.0625,0)" xlink:href="#A"/><use transform="matrix(0.009765625,0,0,0.009765625,56.7578125,0)" xlink:href="#t"/><use transform="matrix(0.009765625,0,0,0.009765625,69.052734375,0)" xlink:href="#Y"/><use transform="matrix(0.009765625,0,0,0.009765625,80.25390625,0)" xlink:href="#y"/><use transform="matrix(0.009765625,0,0,0.009765625,93.7109375,0)" xlink:href="#Y"/><use transform="matrix(0.009765625,0,0,0.009765625,106.083984375,0)" xlink:href="#Z"/><use transform="matrix(0.009765625,0,0,0.009765625,111.9140625,0)" xlink:href="#C"/><use transform="matrix(0.009765625,0,0,0.009765625,125.72265625,0)" xlink:href="#v"/></g><path fill="#5380d1" d="M766-1139c252 0 364 153 364 410V0H825v-653c-2-140-28-242-153-242-188 0-207 177-207 369V0H160v-1118h233l41 143h17c59-101 160-164 315-164" id="aa"/><path fill="#5380d1" d="M612-223c188 0 207-177 207-369v-526h305V0H891l-41-143h-16C774-43 673 20 518 20c-251 0-364-152-364-409v-729h305v653c2 140 28 242 153 242" id="ab"/><path fill="#5380d1" d="M465 0H160v-1556h305V0" id="ac"/><g id="m"><use transform="matrix(0.0087890625,0,0,0.0087890625,0,0)" xlink:href="#J"/><use transform="matrix(0.0087890625,0,0,0.0087890625,8.6572265625,0)" xlink:href="#D"/><use transform="matrix(0.0087890625,0,0,0.0087890625,19.1162109375,0)" xlink:href="#aa"/><use transform="matrix(0.0087890625,0,0,0.0087890625,30.4013671875,0)" xlink:href="#J"/><use transform="matrix(0.0087890625,0,0,0.0087890625,39.05859375,0)" xlink:href="#ab"/><use transform="matrix(0.0087890625,0,0,0.0087890625,50.34375,0)" xlink:href="#I"/><use transform="matrix(0.0087890625,0,0,0.0087890625,59.326171875,0)" xlink:href="#H"/><use transform="matrix(0.0087890625,0,0,0.0087890625,66.779296875,0)" xlink:href="#ac"/></g><g id="n"><use transform="matrix(0.0087890625,0,0,0.0087890625,0,0)" xlink:href="#F"/><use transform="matrix(0.0087890625,0,0,0.0087890625,10.9423828125,0)" xlink:href="#L"/><use transform="matrix(0.0087890625,0,0,0.0087890625,18.755859375,0)" xlink:href="#K"/><use transform="matrix(0.0087890625,0,0,0.0087890625,29.5400390625,0)" xlink:href="#R"/><use transform="matrix(0.0087890625,0,0,0.0087890625,44.05078125,0)" xlink:href="#J"/><use transform="matrix(0.0087890625,0,0,0.0087890625,52.7080078125,0)" xlink:href="#D"/><use transform="matrix(0.0087890625,0,0,0.0087890625,63.1669921875,0)" xlink:href="#L"/></g><path fill="#4f4f4f" d="M522-1456L896-400l372-1056h394V0h-301c-7-379 15-728 30-1085L998 0H792L400-1084c15 357 37 705 30 1084H130v-1456h392" id="ad"/><g id="o"><use transform="matrix(0.009765625,0,0,0.009765625,0,0)" xlink:href="#ad"/><use transform="matrix(0.009765625,0,0,0.009765625,17.51953125,0)" xlink:href="#C"/><use transform="matrix(0.009765625,0,0,0.009765625,31.328125,0)" xlink:href="#v"/><use transform="matrix(0.009765625,0,0,0.009765625,45.44921875,0)" xlink:href="#Z"/><use transform="matrix(0.009765625,0,0,0.009765625,50.99609375,0)" xlink:href="#Y"/><use transform="matrix(0.009765625,0,0,0.009765625,63.095703125,0)" xlink:href="#C"/><use transform="matrix(0.009765625,0,0,0.009765625,76.904296875,0)" xlink:href="#X"/><use transform="matrix(0.009765625,0,0,0.009765625,89.66796875,0)" xlink:href="#u"/><use transform="matrix(0.009765625,0,0,0.009765625,100.91796875,0)" xlink:href="#B"/></g><g id="p"><use transform="matrix(0.009765625,0,0,0.009765625,0,0)" xlink:href="#u"/><use transform="matrix(0.009765625,0,0,0.009765625,11.25,0)" xlink:href="#v"/><use transform="matrix(0.009765625,0,0,0.009765625,25.087890625,0)" xlink:href="#Y"/><use transform="matrix(0.009765625,0,0,0.009765625,37.4609375,0)" xlink:href="#Z"/><use transform="matrix(0.009765625,0,0,0.009765625,43.0078125,0)" xlink:href="#Y"/><use transform="matrix(0.009765625,0,0,0.009765625,55.380859375,0)" xlink:href="#Z"/><use transform="matrix(0.009765625,0,0,0.009765625,61.2109375,0)" xlink:href="#u"/><use transform="matrix(0.009765625,0,0,0.009765625,72.4609375,0)" xlink:href="#t"/></g><path fill="#5380d1" d="M61-424v-250h537v250H61" id="ae"/><path fill="#5380d1" d="M590-1141c273 0 433 125 432 396V0H809l-59-152h-9C668-49 580 25 403 20 190 14 86-114 86-334c0-265 181-343 455-356l178-6v-84c1-94-58-135-152-135-112 0-196 37-278 77l-99-202c105-58 242-101 400-101zm-68 938c131 0 194-88 197-223v-92c-169 0-320 14-320 186 0 87 44 129 123 129" id="af"/><path fill="#5380d1" d="M958-750c0 287-215 410-516 373-23 21-43 40-43 80 0 65 84 66 154 66h174c217 1 346 94 346 311 0 316-268 412-598 412-204 0-358-51-427-181-20-38-28-81-28-129C20 17 134-50 268-84c-59-30-116-78-116-162 0-108 74-145 143-190-112-47-193-164-191-320 4-261 163-383 428-383 60 0 123 12 173 23h380v166l-163 51c25 42 36 87 36 149zM602 20c-155-5-314-10-317 138-4 179 338 139 439 85 53-28 79-69 79-118 0-102-85-101-201-105zm66-772c0-110-30-196-136-196-91 0-137 65-137 196 0 109 35 191 137 191 105 0 136-80 136-191" id="ag"/><g id="q"><use transform="matrix(0.0087890625,0,0,0.0087890625,0,0)" xlink:href="#J"/><use transform="matrix(0.0087890625,0,0,0.0087890625,8.6572265625,0)" xlink:href="#D"/><use transform="matrix(0.0087890625,0,0,0.0087890625,19.1162109375,0)" xlink:href="#aa"/><use transform="matrix(0.0087890625,0,0,0.0087890625,30.4013671875,0)" xlink:href="#J"/><use transform="matrix(0.0087890625,0,0,0.0087890625,39.05859375,0)" xlink:href="#ab"/><use transform="matrix(0.0087890625,0,0,0.0087890625,50.34375,0)" xlink:href="#ae"/><use transform="matrix(0.0087890625,0,0,0.0087890625,56.1357421875,0)" xlink:href="#af"/><use transform="matrix(0.0087890625,0,0,0.0087890625,66.4716796875,0)" xlink:href="#ag"/><use transform="matrix(0.0087890625,0,0,0.0087890625,76.4033203125,0)" xlink:href="#D"/><use transform="matrix(0.0087890625,0,0,0.0087890625,86.8623046875,0)" xlink:href="#aa"/><use transform="matrix(0.0087890625,0,0,0.0087890625,98.1474609375,0)" xlink:href="#H"/></g><path fill="#4f4f4f" d="M430-241h637V0H130v-1456h300v1215" id="ah"/><g id="r"><use transform="matrix(0.009765625,0,0,0.009765625,0,0)" xlink:href="#ah"/><use transform="matrix(0.009765625,0,0,0.009765625,10.205078125,0)" xlink:href="#C"/><use transform="matrix(0.009765625,0,0,0.009765625,23.80859375,0)" xlink:href="#y"/><use transform="matrix(0.009765625,0,0,0.009765625,37.265625,0)" xlink:href="#B"/></g><g id="s"><use transform="matrix(0.009765625,0,0,0.009765625,0,0)" xlink:href="#x"/><use transform="matrix(0.009765625,0,0,0.009765625,12.763671875,0)" xlink:href="#y"/><use transform="matrix(0.009765625,0,0,0.009765625,26.220703125,0)" xlink:href="#ah"/><use transform="matrix(0.009765625,0,0,0.009765625,37.236328125,0)" xlink:href="#y"/><use transform="matrix(0.009765625,0,0,0.009765625,50.693359375,0)" xlink:href="#v"/><use transform="matrix(0.009765625,0,0,0.009765625,64.814453125,0)" xlink:href="#z"/><use transform="matrix(0.009765625,0,0,0.009765625,77.900390625,0)" xlink:href="#u"/><use transform="matrix(0.009765625,0,0,0.009765625,89.150390625,0)" xlink:href="#X"/></g></defs></g></svg>