<svg xmlns="http://www.w3.org/2000/svg" xmlns:xlink="http://www.w3.org/1999/xlink" xmlns:lucid="lucid" width="1363.64" height="500"><g transform="translate(0 0)" lucid:page-tab-id="0_0"><path d="M5.1 30.85c0-1.65 1.34-3 3-3h275.75c1.65 0 3 1.35 3 3v66.57c0 1.66-1.35 3-3 3H8.1c-1.66 0-3-1.34-3-3z" stroke="#89c967" fill="#fff"/><use xlink:href="#a" transform="matrix(1,0,0,1,10.098196720175878,32.854157912752584) translate(107.15541099493738 26.970029210041204)"/><use xlink:href="#b" transform="matrix(1,0,0,1,10.098196720175878,32.854157912752584) translate(56.45937539181104 52.35674051210194)"/><use xlink:href="#c" transform="matrix(1,0,0,1,10.098196720175878,32.854157912752584) translate(104.92911910045555 52.35674051210194)"/><use xlink:href="#d" transform="matrix(1,0,0,1,10.098196720175878,32.854157912752584) translate(156.29521288292997 52.35674051210194)"/><path d="M312.6 4.24h1018.28V468.7H312.58z" stroke="#000" stroke-opacity="0" stroke-width="2" fill="#f0f0f0"/><path d="M341.56 30.85c0-1.65 1.34-3 3-3H620.3c1.66 0 3 1.35 3 3v66.57c0 1.66-1.34 3-3 3H344.56c-1.66 0-3-1.34-3-3z" stroke="#000" stroke-opacity="0" fill="#fff"/><use xlink:href="#e" transform="matrix(1,0,0,1,346.5562318535525,32.854157912752584) translate(109.08064858066987 26.970029210041204)"/><use xlink:href="#f" transform="matrix(1,0,0,1,346.5562318535525,32.854157912752584) translate(65.5273387950025 52.35674051210194)"/><use xlink:href="#g" transform="matrix(1,0,0,1,346.5562318535525,32.854157912752584) translate(115.13901264028246 52.35674051210194)"/><use xlink:href="#h" transform="matrix(1,0,0,1,346.5562318535525,32.854157912752584) translate(144.27899349060698 52.35674051210194)"/><path d="M685.3 30.85c0-1.65 1.35-3 3-3h275.75c1.66 0 3 1.35 3 3v66.57c0 1.66-1.34 3-3 3H688.3c-1.65 0-3-1.34-3-3z" stroke="#000" stroke-opacity="0" fill="#fff"/><use xlink:href="#i" transform="matrix(1,0,0,1,690.3044426538125,32.854157912752584) translate(94.68100393208836 26.970029210041204)"/><use xlink:href="#j" transform="matrix(1,0,0,1,690.3044426538125,32.854157912752584) translate(127.2019473563769 52.35674051210194)"/><path d="M1031.94 30.85c0-1.65 1.34-3 3-3h275.75c1.65 0 3 1.35 3 3v66.57c0 1.66-1.35 3-3 3h-275.76c-1.66 0-3-1.34-3-3z" stroke="#000" stroke-opacity="0" fill="#fff"/><use xlink:href="#k" transform="matrix(1,0,0,1,1036.941035305951,32.854157912752584) translate(94.98677696041057 26.970029210041204)"/><use xlink:href="#l" transform="matrix(1,0,0,1,1036.941035305951,32.854157912752584) translate(52.91420137671099 52.35674051210194)"/><use xlink:href="#m" transform="matrix(1,0,0,1,1036.941035305951,32.854157912752584) translate(117.33982344907078 52.35674051210194)"/><use xlink:href="#n" transform="matrix(1,0,0,1,1036.941035305951,32.854157912752584) translate(167.0760714910746 52.35674051210194)"/><path d="M287.35 64.14h37.6" stroke="#89c967" fill="none"/><path d="M287.35 64.64h-.5v-1h.5zM339.94 64.14l-14.27 4.63V59.5z" fill="#89c967"/><path d="M341.56 64.14l-16.4 5.32V58.8zm-15.4 3.95l12.16-3.96-12.15-3.95z" fill="#89c967"/><path d="M623.3 64.14h45.4" stroke="#89c967" fill="none"/><path fill="#89c967"/><path d="M683.7 64.14l-14.28 4.63V59.5z" fill="#89c967"/><path d="M685.3 64.14l-16.38 5.32V58.8zm-15.38 3.95l12.15-3.96-12.15-3.95z" fill="#89c967"/><path d="M967.05 64.14h48.27" stroke="#89c967" fill="none"/><path d="M967.05 64.64v-1zM1030.32 64.14l-14.26 4.63V59.5z" fill="#89c967"/><path d="M1031.94 64.14l-16.38 5.32V58.8zm-15.38 3.95l12.14-3.96-12.14-3.95z" fill="#89c967"/><path d="M5.1 126.42c0-1.65 1.34-3 3-3h275.75c1.65 0 3 1.35 3 3V193c0 1.65-1.35 3-3 3H8.1c-1.66 0-3-1.35-3-3z" stroke="#89c967" fill="#fff"/><use xlink:href="#a" transform="matrix(1,0,0,1,10.098196720175878,128.42211446366343) translate(107.15541099493738 26.970029210041204)"/><use xlink:href="#o" transform="matrix(1,0,0,1,10.098196720175878,128.42211446366343) translate(8.820126327992313 52.35674051210194)"/><use xlink:href="#p" transform="matrix(1,0,0,1,10.098196720175878,128.42211446366343) translate(120.7811856335676 52.35674051210194)"/><use xlink:href="#q" transform="matrix(1,0,0,1,10.098196720175878,128.42211446366343) translate(170.80810680126046 52.35674051210194)"/><use xlink:href="#r" transform="matrix(1,0,0,1,10.098196720175878,128.42211446366343) translate(212.62351216823842 52.35674051210194)"/><path d="M341.56 126.42c0-1.65 1.34-3 3-3H620.3c1.66 0 3 1.35 3 3V193c0 1.65-1.34 3-3 3H344.56c-1.66 0-3-1.35-3-3z" stroke="#000" stroke-opacity="0" fill="#fff"/><use xlink:href="#s" transform="matrix(1,0,0,1,346.5562318535525,128.42211446366343) translate(111.32392786561405 26.309408469838885)"/><use xlink:href="#t" transform="matrix(1,0,0,1,346.5562318535525,128.42211446366343) translate(31.674300835291717 51.224247814612255)"/><use xlink:href="#u" transform="matrix(1,0,0,1,346.5562318535525,128.42211446366343) translate(96.6605067929089 51.224247814612255)"/><use xlink:href="#v" transform="matrix(1,0,0,1,346.5562318535525,128.42211446366343) translate(186.61345801060105 51.224247814612255)"/><path d="M685.3 126.42c0-1.65 1.35-3 3-3h275.75c1.66 0 3 1.35 3 3V193c0 1.65-1.34 3-3 3H688.3c-1.65 0-3-1.35-3-3z" stroke="#000" stroke-opacity="0" fill="#fff"/><use xlink:href="#i" transform="matrix(1,0,0,1,690.3044426538125,128.42211446366343) translate(94.68100393208836 26.970029210041204)"/><use xlink:href="#j" transform="matrix(1,0,0,1,690.3044426538125,128.42211446366343) translate(127.2019473563769 52.35674051210194)"/><path d="M1031.94 126.42c0-1.65 1.34-3 3-3h275.75c1.65 0 3 1.35 3 3V193c0 1.65-1.35 3-3 3h-275.76c-1.66 0-3-1.35-3-3z" stroke="#000" stroke-opacity="0" fill="#fff"/><use xlink:href="#k" transform="matrix(1,0,0,1,1036.941035305951,128.42211446366343) translate(94.98677696041057 26.970029210041204)"/><use xlink:href="#w" transform="matrix(1,0,0,1,1036.941035305951,128.42211446366343) translate(1.195147370185623 52.35674051210194)"/><use xlink:href="#x" transform="matrix(1,0,0,1,1036.941035305951,128.42211446366343) translate(52.405523406755215 52.35674051210194)"/><use xlink:href="#y" transform="matrix(1,0,0,1,1036.941035305951,128.42211446366343) translate(76.53139283894409 52.35674051210194)"/><use xlink:href="#z" transform="matrix(1,0,0,1,1036.941035305951,128.42211446366343) translate(197.4098883933362 52.35674051210194)"/><use xlink:href="#A" transform="matrix(1,0,0,1,1036.941035305951,128.42211446366343) translate(219.56333304406385 52.35674051210194)"/><path d="M287.35 159.7h37.6" stroke="#89c967" fill="none"/><path d="M287.35 160.2h-.5v-1h.5zM339.94 159.7l-14.27 4.64v-9.27z" fill="#89c967"/><path d="M341.56 159.7l-16.4 5.33v-10.65zm-15.4 3.95l12.16-3.94-12.15-3.94z" fill="#89c967"/><path d="M623.3 159.7h45.4" stroke="#89c967" fill="none"/><path fill="#89c967"/><path d="M683.7 159.7l-14.28 4.64v-9.27z" fill="#89c967"/><path d="M685.3 159.7l-16.38 5.33v-10.65zm-15.38 3.95l12.15-3.94-12.15-3.94z" fill="#89c967"/><path d="M967.05 159.7h48.27" stroke="#89c967" fill="none"/><path d="M967.05 160.2v-1zM1030.32 159.7l-14.26 4.64v-9.27z" fill="#89c967"/><path d="M1031.94 159.7l-16.38 5.33v-10.65zm-15.38 3.95l12.14-3.94-12.14-3.94z" fill="#89c967"/><path d="M5.1 222c0-1.67 1.34-3 3-3h275.75c1.65 0 3 1.33 3 3v66.56c0 1.65-1.35 3-3 3H8.1c-1.66 0-3-1.35-3-3z" stroke="#89c967" fill="#fff"/><use xlink:href="#a" transform="matrix(1,0,0,1,10.098196720175878,223.9900710145744) translate(107.15541099493738 26.970029210041204)"/><use xlink:href="#B" transform="matrix(1,0,0,1,10.098196720175878,223.9900710145744) translate(71.71971449048472 52.35674051210194)"/><use xlink:href="#C" transform="matrix(1,0,0,1,10.098196720175878,223.9900710145744) translate(139.95523074598276 52.35674051210194)"/><path d="M341.56 222c0-1.67 1.34-3 3-3H620.3c1.66 0 3 1.33 3 3v66.56c0 1.65-1.34 3-3 3H344.56c-1.66 0-3-1.35-3-3z" stroke="#000" stroke-opacity="0" fill="#fff"/><use xlink:href="#e" transform="matrix(1,0,0,1,346.5562318535525,223.9900710145744) translate(109.08064858066987 26.970029210041204)"/><use xlink:href="#D" transform="matrix(1,0,0,1,346.5562318535525,223.9900710145744) translate(74.00357476375561 52.35674051210194)"/><use xlink:href="#E" transform="matrix(1,0,0,1,346.5562318535525,223.9900710145744) translate(96.15701941448326 52.35674051210194)"/><path d="M685.3 222c0-1.67 1.35-3 3-3h275.75c1.66 0 3 1.33 3 3v66.56c0 1.65-1.34 3-3 3H688.3c-1.65 0-3-1.35-3-3z" stroke="#000" stroke-opacity="0" fill="#fff"/><use xlink:href="#i" transform="matrix(1,0,0,1,690.3044426538125,223.9900710145744) translate(94.68100393208836 26.970029210041204)"/><use xlink:href="#F" transform="matrix(1,0,0,1,690.3044426538125,223.9900710145744) translate(62.101548385096166 52.35674051210194)"/><use xlink:href="#G" transform="matrix(1,0,0,1,690.3044426538125,223.9900710145744) translate(102.90997899522287 52.35674051210194)"/><use xlink:href="#H" transform="matrix(1,0,0,1,690.3044426538125,223.9900710145744) translate(168.49829357033877 52.35674051210194)"/><path d="M1031.94 222c0-1.67 1.34-3 3-3h275.75c1.65 0 3 1.33 3 3v66.56c0 1.65-1.35 3-3 3h-275.76c-1.66 0-3-1.35-3-3z" stroke="#000" stroke-opacity="0" fill="#fff"/><use xlink:href="#k" transform="matrix(1,0,0,1,1036.941035305951,223.9900710145744) translate(94.98677696041057 26.970029210041204)"/><use xlink:href="#I" transform="matrix(1,0,0,1,1036.941035305951,223.9900710145744) translate(58.50446845469452 52.35674051210194)"/><use xlink:href="#z" transform="matrix(1,0,0,1,1036.941035305951,223.9900710145744) translate(111.85336820169047 52.35674051210194)"/><use xlink:href="#J" transform="matrix(1,0,0,1,1036.941035305951,223.9900710145744) translate(134.00681285241814 52.35674051210194)"/><path d="M287.35 255.27h37.6" stroke="#89c967" fill="none"/><path d="M287.35 255.77h-.5v-1h.5zM339.94 255.27l-14.27 4.64v-9.26z" fill="#89c967"/><path d="M341.56 255.27l-16.4 5.33v-10.65zm-15.4 3.95l12.16-3.95-12.15-3.94z" fill="#89c967"/><path d="M623.3 255.27h45.4" stroke="#89c967" fill="none"/><path fill="#89c967"/><path d="M683.7 255.27l-14.28 4.64v-9.26z" fill="#89c967"/><path d="M685.3 255.27l-16.38 5.33v-10.65zm-15.38 3.95l12.15-3.95-12.15-3.94z" fill="#89c967"/><path d="M967.05 255.27h48.27" stroke="#89c967" fill="none"/><path d="M967.05 255.77v-1zM1030.32 255.27l-14.26 4.64v-9.26z" fill="#89c967"/><path d="M1031.94 255.27l-16.38 5.33v-10.65zm-15.38 3.95l12.14-3.95-12.14-3.94z" fill="#89c967"/><path d="M5.1 318.08c0-1.65 1.34-3 3-3h275.75c1.65 0 3 1.35 3 3v66.57c0 1.66-1.35 3-3 3H8.1c-1.66 0-3-1.34-3-3z" stroke="#89c967" fill="#fff"/><g><use xlink:href="#a" transform="matrix(1,0,0,1,10.098196720175878,320.08404568113235) translate(107.15541099493738 26.970029210041204)"/><use xlink:href="#K" transform="matrix(1,0,0,1,10.098196720175878,320.08404568113235) translate(24.651430494983714 52.35674051210194)"/><use xlink:href="#L" transform="matrix(1,0,0,1,10.098196720175878,320.08404568113235) translate(89.79335419850574 52.35674051210194)"/><use xlink:href="#M" transform="matrix(1,0,0,1,10.098196720175878,320.08404568113235) translate(170.41362184496822 52.35674051210194)"/></g><path d="M341.56 318.08c0-1.65 1.34-3 3-3H620.3c1.66 0 3 1.35 3 3v66.57c0 1.66-1.34 3-3 3H344.56c-1.66 0-3-1.34-3-3z" stroke="#000" stroke-opacity="0" fill="#fff"/><g><use xlink:href="#e" transform="matrix(1,0,0,1,346.5562318535525,320.08404568113235) translate(109.08064858066987 26.970029210041204)"/><use xlink:href="#N" transform="matrix(1,0,0,1,346.5562318535525,320.08404568113235) translate(60.305603715660425 52.35674051210194)"/><use xlink:href="#O" transform="matrix(1,0,0,1,346.5562318535525,320.08404568113235) translate(89.4248221998643 52.35674051210194)"/><use xlink:href="#P" transform="matrix(1,0,0,1,346.5562318535525,320.08404568113235) translate(142.36885580750769 52.35674051210194)"/></g><path d="M685.3 318.08c0-1.65 1.35-3 3-3h275.75c1.66 0 3 1.35 3 3v66.57c0 1.66-1.34 3-3 3H688.3c-1.65 0-3-1.34-3-3z" stroke="#000" stroke-opacity="0" fill="#fff"/><g><use xlink:href="#i" transform="matrix(1,0,0,1,690.3044426538125,320.08404568113235) translate(94.68100393208836 26.970029210041204)"/><use xlink:href="#j" transform="matrix(1,0,0,1,690.3044426538125,320.08404568113235) translate(127.2019473563769 52.35674051210194)"/></g><path d="M1031.94 318.08c0-1.65 1.34-3 3-3h275.75c1.65 0 3 1.35 3 3v66.57c0 1.66-1.35 3-3 3h-275.76c-1.66 0-3-1.34-3-3z" stroke="#000" stroke-opacity="0" fill="#fff"/><g><use xlink:href="#k" transform="matrix(1,0,0,1,1036.941035305951,320.08404568113235) translate(94.98677696041057 26.970029210041204)"/><use xlink:href="#Q" transform="matrix(1,0,0,1,1036.941035305951,320.08404568113235) translate(9.199039509694046 52.35674051210194)"/><use xlink:href="#R" transform="matrix(1,0,0,1,1036.941035305951,320.08404568113235) translate(62.36107796160421 52.35674051210194)"/><use xlink:href="#z" transform="matrix(1,0,0,1,1036.941035305951,320.08404568113235) translate(142.73219721461896 52.35674051210194)"/><use xlink:href="#S" transform="matrix(1,0,0,1,1036.941035305951,320.08404568113235) translate(164.88564186534663 52.35674051210194)"/></g><path d="M287.35 351.37h37.6" stroke="#89c967" fill="none"/><path d="M287.35 351.87h-.5v-1h.5zM339.94 351.37L325.67 356v-9.27z" fill="#89c967"/><path d="M341.56 351.37l-16.4 5.32v-10.66zm-15.4 3.95l12.16-3.95-12.15-3.95z" fill="#89c967"/><path d="M623.3 351.37h45.4" stroke="#89c967" fill="none"/><path fill="#89c967"/><path d="M683.7 351.37L669.4 356v-9.27z" fill="#89c967"/><path d="M685.3 351.37l-16.38 5.32v-10.66zm-15.38 3.95l12.15-3.95-12.15-3.95z" fill="#89c967"/><path d="M967.05 351.37h48.27" stroke="#89c967" fill="none"/><path d="M967.05 351.87v-1zM1030.32 351.37l-14.26 4.63v-9.27z" fill="#89c967"/><path d="M1031.94 351.37l-16.38 5.32v-10.66zm-15.38 3.95l12.14-3.95-12.14-3.95z" fill="#89c967"/><path d="M695.14 417.2h259.72v31.1H695.14z" stroke="#000" stroke-opacity="0" stroke-width="2" fill-opacity="0"/><g><use xlink:href="#T" transform="matrix(1,0,0,1,695.1387024467483,417.18958663971904) translate(0 26.70725818694426)"/><use xlink:href="#U" transform="matrix(1,0,0,1,695.1387024467483,417.18958663971904) translate(77.90293446830044 26.70725818694426)"/><use xlink:href="#V" transform="matrix(1,0,0,1,695.1387024467483,417.18958663971904) translate(154.0740913034049 26.70725818694426)"/></g><defs><path fill="#2c3458" d="M1006-631H430v390h676V0H130v-1456h974v243H430v347h576v235" id="W"/><path fill="#2c3458" d="M516-353l201-729h302L654 0H378L13-1082h302" id="X"/><path fill="#2c3458" d="M1031-175C952-60 797 20 609 20 287 20 60-206 72-543c12-330 180-559 505-559 309 0 482 214 477 537v118H365c15 134 115 234 263 234 111 0 198-40 261-121zM770-644c5-139-62-226-194-224-130 1-191 97-208 224h402" id="Y"/><path fill="#2c3458" d="M750-692c-1-124-48-174-173-175-81 0-142 35-183 104V0H105v-1082h272l9 125c77-97 181-145 311-145 244 0 342 151 342 403V0H750v-692" id="Z"/><path fill="#2c3458" d="M457-330c2 83 25 111 111 112 32 0 60-2 85-7V-6c-57 17-115 26-175 26-203 0-310-102-310-307v-583H10v-212h158v-266h289v266h185v212H457v540" id="aa"/><g id="a"><use transform="matrix(0.011324926974896983,0,0,0.011324926974896983,0,0)" xlink:href="#W"/><use transform="matrix(0.011324926974896983,0,0,0.011324926974896983,12.751867773734004,0)" xlink:href="#X"/><use transform="matrix(0.011324926974896983,0,0,0.011324926974896983,24.32594314207872,0)" xlink:href="#Y"/><use transform="matrix(0.011324926974896983,0,0,0.011324926974896983,36.86263730328968,0)" xlink:href="#Z"/><use transform="matrix(0.011324926974896983,0,0,0.011324926974896983,49.85232854349652,0)" xlink:href="#aa"/></g><path fill="#2c3458" d="M665-137c214 0 337-121 336-332v-987h193v990c-3 300-218 486-529 486-309 0-526-181-525-484v-992h190v986c-1 210 123 333 335 333" id="ab"/><path fill="#2c3458" d="M538-131c121 0 232-49 232-156 0-50-20-88-56-117-73-60-334-92-420-143-92-55-162-110-162-238 0-190 192-317 400-317 223 0 414 129 413 338H759c0-108-110-186-227-186-119 0-215 53-215 159 0 45 18 78 53 101 76 52 331 90 416 139 98 57 169 115 169 251C955-92 760 20 538 20c-176 0-314-68-386-174-38-55-57-115-57-179h185c6 129 116 202 258 202" id="ac"/><path fill="#2c3458" d="M599-131c141 0 220-65 285-146l113 88C906-50 770 20 589 20 281 21 93-214 93-545c0-223 93-397 233-485 74-48 154-72 240-72 300 2 449 218 445 537v77H278c0 197 129 357 321 357zm227-509c-3-180-88-310-260-310-170 0-264 140-282 310h542" id="ad"/><path fill="#2c3458" d="M663-916c-163-27-288 18-338 148V0H140v-1082h180l3 125c61-97 147-145 258-145 36 0 63 5 82 14v172" id="ae"/><g id="b"><use transform="matrix(0.010381183060322235,0,0,0.010381183060322235,0,0)" xlink:href="#ab"/><use transform="matrix(0.010381183060322235,0,0,0.010381183060322235,13.78621110410793,0)" xlink:href="#ac"/><use transform="matrix(0.010381183060322235,0,0,0.010381183060322235,24.74874041580821,0)" xlink:href="#ad"/><use transform="matrix(0.010381183060322235,0,0,0.010381183060322235,36.01232403625783,0)" xlink:href="#ae"/></g><path fill="#2c3458" d="M341 0H156v-1536h185V0" id="af"/><path fill="#2c3458" d="M584 20C278 26 81-227 91-551c10-320 175-545 491-551 308-5 503 247 494 573-9 322-175 543-492 549zm-2-970c-208 0-305 185-305 421 0 216 106 398 307 398 211 0 307-186 307-420 0-214-109-399-309-399" id="ag"/><path fill="#2c3458" d="M521 20C240 20 96-239 96-550c0-303 147-552 427-552 132 0 235 47 309 140l9-120h169V-26c4 277-183 454-459 452-165-1-334-81-400-187l96-111c79 98 176 147 291 147 180 1 288-109 286-290v-93C750-23 649 20 521 20zm48-965c-209 0-287 178-287 416 0 217 86 392 285 392 117 0 202-53 257-159v-494c-57-103-142-155-255-155" id="ah"/><path fill="#2c3458" d="M341 0H156v-1082h185V0zm-91-1264c-68 0-108-42-109-105 0-62 41-107 109-107s110 44 110 107-42 105-110 105" id="ai"/><path fill="#2c3458" d="M589-945c-131 0-219 81-264 174V0H140v-1082h175l6 136c83-104 191-156 324-156 229 0 346 129 346 387V0H806v-716c-2-153-65-229-217-229" id="aj"/><g id="c"><use transform="matrix(0.010381183060322235,0,0,0.010381183060322235,0,0)" xlink:href="#af"/><use transform="matrix(0.010381183060322235,0,0,0.010381183060322235,5.1594479809801514,0)" xlink:href="#ag"/><use transform="matrix(0.010381183060322235,0,0,0.010381183060322235,17.28466979543652,0)" xlink:href="#ah"/><use transform="matrix(0.010381183060322235,0,0,0.010381183060322235,29.21264913174677,0)" xlink:href="#ai"/><use transform="matrix(0.010381183060322235,0,0,0.010381183060322235,34.37209711272692,0)" xlink:href="#aj"/></g><path fill="#2c3458" d="M704-1390c-164-38-297 28-288 194v114h231v143H416V0H231v-939H60v-143h171v-111c-12-274 208-416 483-347" id="ak"/><path fill="#2c3458" d="M561-1102c238-4 403 126 403 351v498c0 99 13 178 38 237V0H808c-11-21-19-59-26-114C696-25 593 20 474 20c-199 0-368-130-365-320 4-251 214-359 490-356h180v-85c-1-135-86-212-229-212-115 0-232 67-233 171H131c20-205 206-316 430-320zM294-326c0 117 90 185 207 185 122 0 239-75 278-162v-222H634c-227 0-340 66-340 199" id="al"/><path fill="#2c3458" d="M491 20c-241-1-355-148-355-398v-704h185v699c0 164 67 246 200 246 141 0 235-53 282-158v-787h185V0H812l-4-107C736-22 630 20 491 20" id="am"/><g id="d"><use transform="matrix(0.010381183060322235,0,0,0.010381183060322235,0,0)" xlink:href="#ak"/><use transform="matrix(0.010381183060322235,0,0,0.010381183060322235,7.381021155889109,0)" xlink:href="#al"/><use transform="matrix(0.010381183060322235,0,0,0.010381183060322235,18.945659085088078,0)" xlink:href="#ai"/><use transform="matrix(0.010381183060322235,0,0,0.010381183060322235,24.105107066068232,0)" xlink:href="#af"/><use transform="matrix(0.010381183060322235,0,0,0.010381183060322235,29.264555047048376,0)" xlink:href="#am"/><use transform="matrix(0.010381183060322235,0,0,0.010381183060322235,40.98491072215218,0)" xlink:href="#ae"/><use transform="matrix(0.010381183060322235,0,0,0.010381183060322235,47.98182810480936,0)" xlink:href="#ad"/></g><path fill="#2c3458" d="M1006-595H430V0H130v-1456h948v243H430v376h576v242" id="an"/><path fill="#2c3458" d="M416 0H126v-1082h290V0zM271-1212c-92 0-162-61-162-150s68-149 162-149c93 0 162 60 162 149s-70 150-162 150" id="ao"/><path fill="#2c3458" d="M416 0H126v-1536h290V0" id="ap"/><path fill="#2c3458" d="M719-811c-143-24-279 1-319 103V0H111v-1082h273l8 129c74-124 180-175 331-136" id="aq"/><g id="e"><use transform="matrix(0.011324926974896983,0,0,0.011324926974896983,0,0)" xlink:href="#an"/><use transform="matrix(0.011324926974896983,0,0,0.011324926974896983,12.706568065834416,0)" xlink:href="#ao"/><use transform="matrix(0.011324926974896983,0,0,0.011324926974896983,18.856003413203478,0)" xlink:href="#ap"/><use transform="matrix(0.011324926974896983,0,0,0.011324926974896983,25.005438760572538,0)" xlink:href="#aa"/><use transform="matrix(0.011324926974896983,0,0,0.011324926974896983,32.84228822720125,0)" xlink:href="#Y"/><use transform="matrix(0.011324926974896983,0,0,0.011324926974896983,45.37898238841221,0)" xlink:href="#aq"/></g><path fill="#2c3458" d="M456 20C285 20 205-92 206-268v-671H9v-143h197v-262h185v262h202v143H391v671c-9 125 92 149 207 118V0c-49 13-96 20-142 20" id="ar"/><g id="f"><use transform="matrix(0.010381183060322235,0,0,0.010381183060322235,0,0)" xlink:href="#al"/><use transform="matrix(0.010381183060322235,0,0,0.010381183060322235,11.56463792919897,0)" xlink:href="#ak"/><use transform="matrix(0.010381183060322235,0,0,0.010381183060322235,18.945659085088078,0)" xlink:href="#ar"/><use transform="matrix(0.010381183060322235,0,0,0.010381183060322235,25.890670552443652,0)" xlink:href="#ad"/><use transform="matrix(0.010381183060322235,0,0,0.010381183060322235,37.154254172893275,0)" xlink:href="#ae"/></g><path fill="#2c3458" d="M729 0H543v-1233l-373 137v-168l530-199h29V0" id="as"/><path fill="#2c3458" d="M574-1476c351 0 454 237 460 615v240c0 217-37 378-111 483S733 20 576 20c-346 0-454-246-461-616v-247c0-214 37-373 111-477s190-156 348-156zm275 905c0-337 59-752-275-753-95 0-160 38-207 107-80 118-66 409-67 625 0 157 22 273 68 348s115 113 208 113c91 0 160-35 204-106s69-182 69-334" id="at"/><g id="g"><use transform="matrix(0.010381183060322235,0,0,0.010381183060322235,0,0)" xlink:href="#as"/><use transform="matrix(0.010381183060322235,0,0,0.010381183060322235,11.93836051937057,0)" xlink:href="#at"/></g><path fill="#2c3458" d="M497-251l268-831h189L566 0H425L33-1082h189" id="au"/><g id="h"><use transform="matrix(0.010381183060322235,0,0,0.010381183060322235,0,0)" xlink:href="#ad"/><use transform="matrix(0.010381183060322235,0,0,0.010381183060322235,11.128628240665433,0)" xlink:href="#au"/><use transform="matrix(0.010381183060322235,0,0,0.010381183060322235,21.291806456720906,0)" xlink:href="#ad"/><use transform="matrix(0.010381183060322235,0,0,0.010381183060322235,32.55539007717053,0)" xlink:href="#aj"/><use transform="matrix(0.010381183060322235,0,0,0.010381183060322235,44.28612693533466,0)" xlink:href="#ar"/><use transform="matrix(0.010381183060322235,0,0,0.010381183060322235,51.231138402690235,0)" xlink:href="#ac"/></g><path fill="#2c3458" d="M522-1456L896-400l372-1056h394V0h-301c-7-379 15-728 30-1085L998 0H792L400-1084c15 357 37 705 30 1084H130v-1456h392" id="av"/><path fill="#2c3458" d="M463 20c-241-1-359-147-359-393v-709h289v699c0 113 51 169 154 169 98 0 165-34 202-102v-766h290V0H767l-8-110C688-23 589 20 463 20" id="aw"/><path fill="#2c3458" d="M552-1102c254-4 435 134 435 383v469c1 103 15 180 43 233V0H738c-13-26-23-58-29-97C639-19 548 20 436 20 238 20 64-113 68-304c5-258 212-357 496-357h133c11-137-29-227-160-227-90 0-156 45-156 131H92c15-231 213-342 460-345zM357-325c0 76 61 124 142 124 88 0 168-45 198-105v-186H589c-152 2-232 51-232 167" id="ax"/><path fill="#2c3458" d="M579 20C257 20 58-214 66-551c8-331 182-551 511-551 324 0 514 231 514 572 0 319-198 550-512 550zm-2-888c-169 0-222 141-222 338 0 181 61 317 224 317 170 0 223-137 223-338 0-178-64-317-225-317" id="ay"/><g id="i"><use transform="matrix(0.011324926974896983,0,0,0.011324926974896983,0,0)" xlink:href="#av"/><use transform="matrix(0.011324926974896983,0,0,0.011324926974896983,20.31691899296519,0)" xlink:href="#aw"/><use transform="matrix(0.011324926974896983,0,0,0.011324926974896983,33.29528530619713,0)" xlink:href="#aa"/><use transform="matrix(0.011324926974896983,0,0,0.011324926974896983,41.13213477282584,0)" xlink:href="#ax"/><use transform="matrix(0.011324926974896983,0,0,0.011324926974896983,53.566904591262734,0)" xlink:href="#aa"/><use transform="matrix(0.011324926974896983,0,0,0.011324926974896983,61.06400624864453,0)" xlink:href="#ay"/><use transform="matrix(0.011324926974896983,0,0,0.011324926974896983,74.17827168557524,0)" xlink:href="#aq"/></g><path fill="#2c3458" d="M525-543H37v-151h488v151" id="az"/><g id="j"><use transform="matrix(0.010381183060322235,0,0,0.010381183060322235,0,0)" xlink:href="#az"/><use transform="matrix(0.010381183060322235,0,0,0.010381183060322235,5.865368429082063,0)" xlink:href="#az"/><use transform="matrix(0.010381183060322235,0,0,0.010381183060322235,11.730736858164127,0)" xlink:href="#az"/></g><path fill="#2c3458" d="M1315 0h-300v-624H430V0H130v-1456h300v590h585v-590h300V0" id="aA"/><path fill="#2c3458" d="M488 20C204 20 66-234 66-549c0-305 140-551 424-553 105 0 192 39 261 118v-552h290V0H780l-14-115C694-25 601 20 488 20zM355-528c0 176 51 314 207 314 89 0 152-38 189-113v-427c-36-75-98-113-187-113-139 0-209 113-209 339" id="aB"/><g id="k"><use transform="matrix(0.011324926974896983,0,0,0.011324926974896983,0,0)" xlink:href="#aA"/><use transform="matrix(0.011324926974896983,0,0,0.011324926974896983,16.387169332675935,0)" xlink:href="#ax"/><use transform="matrix(0.011324926974896983,0,0,0.011324926974896983,28.821939151112822,0)" xlink:href="#Z"/><use transform="matrix(0.011324926974896983,0,0,0.011324926974896983,41.81163039131966,0)" xlink:href="#aB"/><use transform="matrix(0.011324926974896983,0,0,0.011324926974896983,54.88059612035078,0)" xlink:href="#ap"/><use transform="matrix(0.011324926974896983,0,0,0.011324926974896983,61.030031467719844,0)" xlink:href="#Y"/><use transform="matrix(0.011324926974896983,0,0,0.011324926974896983,73.56672562893081,0)" xlink:href="#aq"/></g><path fill="#2c3458" d="M277-555c0 244 77 420 297 424 127 2 249-93 255-210h175C980-127 805 20 574 20 258 20 81-222 92-562c11-319 164-533 481-540 237-5 426 165 431 392H829c-7-133-115-242-256-240-209 4-296 166-296 395" id="aC"/><g id="l"><use transform="matrix(0.010381183060322235,0,0,0.010381183060322235,0,0)" xlink:href="#aC"/><use transform="matrix(0.010381183060322235,0,0,0.010381183060322235,11.128628240665437,0)" xlink:href="#ae"/><use transform="matrix(0.010381183060322235,0,0,0.010381183060322235,18.125545623322623,0)" xlink:href="#ad"/><use transform="matrix(0.010381183060322235,0,0,0.010381183060322235,29.389129243772246,0)" xlink:href="#al"/><use transform="matrix(0.010381183060322235,0,0,0.010381183060322235,40.95376717297121,0)" xlink:href="#ar"/><use transform="matrix(0.010381183060322235,0,0,0.010381183060322235,47.89877864032678,0)" xlink:href="#ad"/></g><path fill="#2c3458" d="M512-137c164 0 267-115 267-285v-1034h193v1031c4 276-186 445-460 445C234 20 52-130 53-402h192c0 167 97 265 267 265" id="aD"/><path fill="#2c3458" d="M375 0H183v-1456h192V0" id="aE"/><path fill="#2c3458" d="M1161-1018c0 201-122 330-278 388l342 618V0h-206L703-589H361V0H168v-1456h482c310-2 511 139 511 438zm-193 0c0-187-120-280-313-280H361v552h295c179 3 313-101 312-272" id="aF"/><path fill="#2c3458" d="M973-380H363L226 0H28l556-1456h168L1309 0h-197zM421-538h495l-248-681" id="aG"/><g id="m"><use transform="matrix(0.010381183060322235,0,0,0.010381183060322235,0,0)" xlink:href="#aD"/><use transform="matrix(0.010381183060322235,0,0,0.010381183060322235,11.730736858164127,0)" xlink:href="#aE"/><use transform="matrix(0.010381183060322235,0,0,0.010381183060322235,17.51305582276361,0)" xlink:href="#aF"/><use transform="matrix(0.010381183060322235,0,0,0.010381183060322235,30.60372766182995,0)" xlink:href="#aG"/></g><path fill="#2c3458" d="M442-501L326-380V0H141v-1536h185v929c135-169 291-317 436-475h225L566-630 1036 0H819" id="aH"/><g id="n"><use transform="matrix(0.010381183060322235,0,0,0.010381183060322235,0,0)" xlink:href="#ar"/><use transform="matrix(0.010381183060322235,0,0,0.010381183060322235,6.945011467355576,0)" xlink:href="#ai"/><use transform="matrix(0.010381183060322235,0,0,0.010381183060322235,12.10445944833573,0)" xlink:href="#aC"/><use transform="matrix(0.010381183060322235,0,0,0.010381183060322235,23.233087689001167,0)" xlink:href="#aH"/><use transform="matrix(0.010381183060322235,0,0,0.010381183060322235,33.8011320444092,0)" xlink:href="#ad"/><use transform="matrix(0.010381183060322235,0,0,0.010381183060322235,45.064715664858824,0)" xlink:href="#ar"/></g><path fill="#2c3458" d="M632-1102c291 0 422 251 422 573 0 297-141 548-419 549-131 0-235-42-310-125v521H140v-1498h169l9 120c75-93 180-140 314-140zm-53 971c207 0 290-180 290-419 0-218-92-395-292-395-112 0-196 50-252 149v517c55 99 140 148 254 148" id="aI"/><g id="o"><use transform="matrix(0.010381183060322235,0,0,0.010381183060322235,0,0)" xlink:href="#aG"/><use transform="matrix(0.010381183060322235,0,0,0.010381183060322235,13.869260568590507,0)" xlink:href="#aI"/><use transform="matrix(0.010381183060322235,0,0,0.010381183060322235,25.797239904900756,0)" xlink:href="#aI"/><use transform="matrix(0.010381183060322235,0,0,0.010381183060322235,37.72521924121101,0)" xlink:href="#af"/><use transform="matrix(0.010381183060322235,0,0,0.010381183060322235,42.88466722219116,0)" xlink:href="#ai"/><use transform="matrix(0.010381183060322235,0,0,0.010381183060322235,48.044115203171316,0)" xlink:href="#aC"/><use transform="matrix(0.010381183060322235,0,0,0.010381183060322235,59.17274344383675,0)" xlink:href="#al"/><use transform="matrix(0.010381183060322235,0,0,0.010381183060322235,70.73738137303572,0)" xlink:href="#ar"/><use transform="matrix(0.010381183060322235,0,0,0.010381183060322235,77.68239284039129,0)" xlink:href="#ai"/><use transform="matrix(0.010381183060322235,0,0,0.010381183060322235,82.84184082137143,0)" xlink:href="#ag"/><use transform="matrix(0.010381183060322235,0,0,0.010381183060322235,94.96706263582782,0)" xlink:href="#aj"/></g><g id="p"><use transform="matrix(0.010381183060322235,0,0,0.010381183060322235,0,0)" xlink:href="#ad"/><use transform="matrix(0.010381183060322235,0,0,0.010381183060322235,11.263583620449625,0)" xlink:href="#ae"/><use transform="matrix(0.010381183060322235,0,0,0.010381183060322235,18.457743481252933,0)" xlink:href="#ae"/><use transform="matrix(0.010381183060322235,0,0,0.010381183060322235,25.4442796808498,0)" xlink:href="#ag"/><use transform="matrix(0.010381183060322235,0,0,0.010381183060322235,37.56950149530617,0)" xlink:href="#ae"/></g><g id="q"><use transform="matrix(0.010381183060322235,0,0,0.010381183060322235,0,0)" xlink:href="#ae"/><use transform="matrix(0.010381183060322235,0,0,0.010381183060322235,6.778912538390419,0)" xlink:href="#al"/><use transform="matrix(0.010381183060322235,0,0,0.010381183060322235,18.343550467589388,0)" xlink:href="#ar"/><use transform="matrix(0.010381183060322235,0,0,0.010381183060322235,25.288561934944966,0)" xlink:href="#ad"/></g><path fill="#2c3458" d="M795-650L134-909v-190l854 378v146L134-196v-192" id="aJ"/><path fill="#2c3458" d="M405-800c-173 0-305-128-300-306v-70c-4-171 127-301 298-301 175 0 302 131 298 307v71c4 171-127 299-296 299zm-2-556c-101 0-162 81-160 184v73c-2 100 63 179 162 179s160-78 158-183v-73c1-100-61-180-160-180zM1114 21c-173 0-305-128-300-306v-72c-4-171 127-300 298-300 174 0 304 129 299 307v71c4 170-127 300-297 300zm-2-557c-99 0-163 79-160 183v74c-2 101 63 180 162 180 100 0 160-79 158-184v-74c2-100-61-179-160-179zM447-110l-105-66 711-1138 105 66" id="aK"/><g id="r"><use transform="matrix(0.010381183060322235,0,0,0.010381183060322235,0,0)" xlink:href="#aJ"/><use transform="matrix(0.010381183060322235,0,0,0.010381183060322235,11.107865874544792,0)" xlink:href="#as"/><use transform="matrix(0.010381183060322235,0,0,0.010381183060322235,23.04622639391536,0)" xlink:href="#at"/><use transform="matrix(0.010381183060322235,0,0,0.010381183060322235,34.98458691328593,0)" xlink:href="#aK"/></g><g id="s"><use transform="matrix(0.010381183060322235,0,0,0.010381183060322235,0,0)" xlink:href="#an"/><use transform="matrix(0.010381183060322235,0,0,0.010381183060322235,11.647687393681549,0)" xlink:href="#ao"/><use transform="matrix(0.010381183060322235,0,0,0.010381183060322235,17.28466979543652,0)" xlink:href="#ap"/><use transform="matrix(0.010381183060322235,0,0,0.010381183060322235,22.921652197191495,0)" xlink:href="#aa"/><use transform="matrix(0.010381183060322235,0,0,0.010381183060322235,30.105430874934484,0)" xlink:href="#Y"/><use transform="matrix(0.010381183060322235,0,0,0.010381183060322235,41.5974005227112,0)" xlink:href="#aq"/></g><path fill="#2c3458" d="M520 20C244 20 95-247 95-550c0-298 151-550 427-552 127 0 227 43 301 130v-564h185V0H838l-9-116C755-25 652 20 520 20zm48-965c-210 0-288 177-288 416 0 218 87 392 286 392 117 0 203-53 257-158v-497c-55-102-140-153-255-153" id="aL"/><g id="t"><use transform="matrix(0.010381183060322235,0,0,0.010381183060322235,0,0)" xlink:href="#aL"/><use transform="matrix(0.010381183060322235,0,0,0.010381183060322235,11.990266434672183,0)" xlink:href="#am"/><use transform="matrix(0.010381183060322235,0,0,0.010381183060322235,23.710622109775986,0)" xlink:href="#ae"/><use transform="matrix(0.010381183060322235,0,0,0.010381183060322235,30.904781970579297,0)" xlink:href="#ai"/><use transform="matrix(0.010381183060322235,0,0,0.010381183060322235,36.06422995155945,0)" xlink:href="#aj"/><use transform="matrix(0.010381183060322235,0,0,0.010381183060322235,47.79496680972357,0)" xlink:href="#ah"/></g><path fill="#2c3458" d="M634-1102c292 0 422 254 422 573 0 298-143 547-420 549-137 0-242-48-317-145L310 0H140v-1536h185v573c75-93 178-139 309-139zm-44 965c207 0 281-175 281-413 0-224-79-395-283-395-122 0-210 57-263 170v468c57 113 145 170 265 170" id="aM"/><g id="u"><use transform="matrix(0.010381183060322235,0,0,0.010381183060322235,0,0)" xlink:href="#aM"/><use transform="matrix(0.010381183060322235,0,0,0.010381183060322235,11.927979336310248,0)" xlink:href="#am"/><use transform="matrix(0.010381183060322235,0,0,0.010381183060322235,23.64833501141405,0)" xlink:href="#ac"/><use transform="matrix(0.010381183060322235,0,0,0.010381183060322235,34.61086432311433,0)" xlink:href="#ai"/><use transform="matrix(0.010381183060322235,0,0,0.010381183060322235,39.77031230409448,0)" xlink:href="#aj"/><use transform="matrix(0.010381183060322235,0,0,0.010381183060322235,51.50104916225861,0)" xlink:href="#ad"/><use transform="matrix(0.010381183060322235,0,0,0.010381183060322235,62.76463278270823,0)" xlink:href="#ac"/><use transform="matrix(0.010381183060322235,0,0,0.010381183060322235,73.72716209440851,0)" xlink:href="#ac"/></g><path fill="#2c3458" d="M589-945c-131 0-219 81-264 174V0H140v-1536h185v585c82-101 189-151 320-151 229 0 346 129 346 387V0H806v-716c-2-153-65-229-217-229" id="aN"/><g id="v"><use transform="matrix(0.010381183060322235,0,0,0.010381183060322235,0,0)" xlink:href="#aN"/><use transform="matrix(0.010381183060322235,0,0,0.010381183060322235,11.709974492043482,0)" xlink:href="#ag"/><use transform="matrix(0.010381183060322235,0,0,0.010381183060322235,23.835196306499853,0)" xlink:href="#am"/><use transform="matrix(0.010381183060322235,0,0,0.010381183060322235,35.55555198160366,0)" xlink:href="#ae"/><use transform="matrix(0.010381183060322235,0,0,0.010381183060322235,42.74971184240697,0)" xlink:href="#ac"/></g><g id="w"><use transform="matrix(0.010381183060322235,0,0,0.010381183060322235,0,0)" xlink:href="#ac"/><use transform="matrix(0.010381183060322235,0,0,0.010381183060322235,10.96252931170028,0)" xlink:href="#ad"/><use transform="matrix(0.010381183060322235,0,0,0.010381183060322235,22.226112932149903,0)" xlink:href="#aj"/><use transform="matrix(0.010381183060322235,0,0,0.010381183060322235,33.95684979031403,0)" xlink:href="#aL"/></g><g id="x"><use transform="matrix(0.010381183060322235,0,0,0.010381183060322235,0,0)" xlink:href="#ar"/><use transform="matrix(0.010381183060322235,0,0,0.010381183060322235,6.737387806149131,0)" xlink:href="#ag"/></g><path fill="#2c3458" d="M765-410H501L421 0H278l80-410H119v-137h265l69-354H195v-139h285l82-416h143l-82 416h264l82-416h144l-82 416h204v139h-231l-69 354h225v137H909L829 0H685zM527-547h264l69-354H596" id="aO"/><path fill="#2c3458" d="M1240-945c-141 0-250 95-250 227V0H804v-709c0-157-77-236-231-236-121 0-204 52-249 155V0H139v-1082h175l5 120c79-93 186-140 321-140 151 0 254 58 309 174 69-98 181-174 345-174 237 0 362 126 362 377V0h-185v-714c-2-159-67-231-231-231" id="aP"/><g id="y"><use transform="matrix(0.010381183060322235,0,0,0.010381183060322235,0,0)" xlink:href="#aO"/><use transform="matrix(0.010381183060322235,0,0,0.010381183060322235,13.090671839066339,0)" xlink:href="#aP"/><use transform="matrix(0.010381183060322235,0,0,0.010381183060322235,31.724895432344752,0)" xlink:href="#ag"/><use transform="matrix(0.010381183060322235,0,0,0.010381183060322235,43.85011724680112,0)" xlink:href="#aj"/><use transform="matrix(0.010381183060322235,0,0,0.010381183060322235,55.58085410496525,0)" xlink:href="#ai"/><use transform="matrix(0.010381183060322235,0,0,0.010381183060322235,60.7403020859454,0)" xlink:href="#ar"/><use transform="matrix(0.010381183060322235,0,0,0.010381183060322235,67.47768989209453,0)" xlink:href="#ag"/><use transform="matrix(0.010381183060322235,0,0,0.010381183060322235,79.6029117065509,0)" xlink:href="#ae"/><use transform="matrix(0.010381183060322235,0,0,0.010381183060322235,86.79707156735421,0)" xlink:href="#ai"/><use transform="matrix(0.010381183060322235,0,0,0.010381183060322235,91.95651954833436,0)" xlink:href="#aj"/><use transform="matrix(0.010381183060322235,0,0,0.010381183060322235,103.68725640649846,0)" xlink:href="#ah"/></g><g id="z"><use transform="matrix(0.010381183060322235,0,0,0.010381183060322235,0,0)" xlink:href="#ai"/><use transform="matrix(0.010381183060322235,0,0,0.010381183060322235,5.1594479809801514,0)" xlink:href="#aj"/></g><path fill="#2c3458" d="M631-137c179 0 314-70 314-231 0-71-25-127-75-166s-141-77-272-115c-165-47-285-106-360-175s-112-154-112-255c0-245 231-397 495-397 206 0 369 89 449 218 43 68 65 142 65 223H942c0-184-129-283-321-283-172 0-299 76-301 236 0 59 26 109 76 150s135 78 256 113c205 59 345 116 436 256 35 53 50 119 50 193-2 256-231 398-507 390C333 12 90-129 80-422h193c0 187 160 285 358 285" id="aQ"/><g id="A"><use transform="matrix(0.010381183060322235,0,0,0.010381183060322235,0,0)" xlink:href="#aQ"/><use transform="matrix(0.010381183060322235,0,0,0.010381183060322235,12.613137418291515,0)" xlink:href="#af"/><use transform="matrix(0.010381183060322235,0,0,0.010381183060322235,17.772585399271666,0)" xlink:href="#al"/><use transform="matrix(0.010381183060322235,0,0,0.010381183060322235,29.33722332847064,0)" xlink:href="#aC"/><use transform="matrix(0.010381183060322235,0,0,0.010381183060322235,40.46585156913607,0)" xlink:href="#aH"/></g><path fill="#2c3458" d="M1222-777c17 480-206 763-650 777H169v-1456h411c408 9 627 269 642 679zm-190 4c3-312-149-522-447-525H361v1141h202c308 0 473-209 469-531v-85" id="aR"/><g id="B"><use transform="matrix(0.010381183060322235,0,0,0.010381183060322235,0,0)" xlink:href="#aQ"/><use transform="matrix(0.010381183060322235,0,0,0.010381183060322235,12.613137418291515,0)" xlink:href="#ar"/><use transform="matrix(0.010381183060322235,0,0,0.010381183060322235,19.558148885647093,0)" xlink:href="#al"/><use transform="matrix(0.010381183060322235,0,0,0.010381183060322235,31.122786814846062,0)" xlink:href="#ar"/><use transform="matrix(0.010381183060322235,0,0,0.010381183060322235,38.067798282201636,0)" xlink:href="#ac"/><use transform="matrix(0.010381183060322235,0,0,0.010381183060322235,49.030327593901916,0)" xlink:href="#aR"/></g><g id="C"><use transform="matrix(0.010381183060322235,0,0,0.010381183060322235,0,0)" xlink:href="#aP"/><use transform="matrix(0.010381183060322235,0,0,0.010381183060322235,18.634223593278413,0)" xlink:href="#ad"/><use transform="matrix(0.010381183060322235,0,0,0.010381183060322235,29.897807213728036,0)" xlink:href="#ar"/><use transform="matrix(0.010381183060322235,0,0,0.010381183060322235,36.842818681083614,0)" xlink:href="#ae"/><use transform="matrix(0.010381183060322235,0,0,0.010381183060322235,44.036978541886924,0)" xlink:href="#ai"/><use transform="matrix(0.010381183060322235,0,0,0.010381183060322235,49.19642652286707,0)" xlink:href="#aC"/></g><g id="D"><use transform="matrix(0.010381183060322235,0,0,0.010381183060322235,0,0)" xlink:href="#ai"/><use transform="matrix(0.010381183060322235,0,0,0.010381183060322235,5.1594479809801514,0)" xlink:href="#aj"/></g><g id="E"><use transform="matrix(0.010381183060322235,0,0,0.010381183060322235,0,0)" xlink:href="#aI"/><use transform="matrix(0.010381183060322235,0,0,0.010381183060322235,11.927979336310248,0)" xlink:href="#ae"/><use transform="matrix(0.010381183060322235,0,0,0.010381183060322235,18.914515535907114,0)" xlink:href="#ag"/><use transform="matrix(0.010381183060322235,0,0,0.010381183060322235,31.039737350363485,0)" xlink:href="#aL"/><use transform="matrix(0.010381183060322235,0,0,0.010381183060322235,43.03000378503567,0)" xlink:href="#am"/><use transform="matrix(0.010381183060322235,0,0,0.010381183060322235,54.75035946013947,0)" xlink:href="#aC"/><use transform="matrix(0.010381183060322235,0,0,0.010381183060322235,65.87898770080491,0)" xlink:href="#ar"/><use transform="matrix(0.010381183060322235,0,0,0.010381183060322235,72.82399916816048,0)" xlink:href="#ai"/><use transform="matrix(0.010381183060322235,0,0,0.010381183060322235,77.98344714914063,0)" xlink:href="#ag"/><use transform="matrix(0.010381183060322235,0,0,0.010381183060322235,90.108668963597,0)" xlink:href="#aj"/></g><g id="F"><use transform="matrix(0.010381183060322235,0,0,0.010381183060322235,0,0)" xlink:href="#al"/><use transform="matrix(0.010381183060322235,0,0,0.010381183060322235,11.56463792919897,0)" xlink:href="#aL"/><use transform="matrix(0.010381183060322235,0,0,0.010381183060322235,23.554904363871152,0)" xlink:href="#aL"/></g><g id="G"><use transform="matrix(0.010381183060322235,0,0,0.010381183060322235,0,0)" xlink:href="#aP"/><use transform="matrix(0.010381183060322235,0,0,0.010381183060322235,18.634223593278413,0)" xlink:href="#ad"/><use transform="matrix(0.010381183060322235,0,0,0.010381183060322235,29.897807213728036,0)" xlink:href="#ar"/><use transform="matrix(0.010381183060322235,0,0,0.010381183060322235,36.842818681083614,0)" xlink:href="#ae"/><use transform="matrix(0.010381183060322235,0,0,0.010381183060322235,44.036978541886924,0)" xlink:href="#ai"/><use transform="matrix(0.010381183060322235,0,0,0.010381183060322235,49.19642652286707,0)" xlink:href="#aC"/></g><g id="H"><use transform="matrix(0.010381183060322235,0,0,0.010381183060322235,0,0)" xlink:href="#ar"/><use transform="matrix(0.010381183060322235,0,0,0.010381183060322235,6.945011467355576,0)" xlink:href="#al"/><use transform="matrix(0.010381183060322235,0,0,0.010381183060322235,18.509649396554543,0)" xlink:href="#ah"/><use transform="matrix(0.010381183060322235,0,0,0.010381183060322235,30.43762873286479,0)" xlink:href="#ac"/></g><g id="I"><use transform="matrix(0.010381183060322235,0,0,0.010381183060322235,0,0)" xlink:href="#ac"/><use transform="matrix(0.010381183060322235,0,0,0.010381183060322235,10.96252931170028,0)" xlink:href="#ar"/><use transform="matrix(0.010381183060322235,0,0,0.010381183060322235,17.69991711784941,0)" xlink:href="#ag"/><use transform="matrix(0.010381183060322235,0,0,0.010381183060322235,29.825138932305777,0)" xlink:href="#ae"/><use transform="matrix(0.010381183060322235,0,0,0.010381183060322235,36.822056314962964,0)" xlink:href="#ad"/></g><path fill="#2c3458" d="M503-687l240-395h216L605-547 970 0H756L506-405 256 0H41l365-547-354-535h214" id="aS"/><path fill="#2c3458" d="M1160-420C1159-145 963 0 674 0H169v-1456h476c294-1 476 112 476 388 0 153-99 253-216 302 146 38 255 167 255 346zM678-157c171 2 289-95 289-261 0-175-95-263-286-263H361v524h317zm250-912c-2-172-104-229-283-229H361v463h290c157 3 278-84 277-234" id="aT"/><g id="J"><use transform="matrix(0.010381183060322235,0,0,0.010381183060322235,0,0)" xlink:href="#aE"/><use transform="matrix(0.010381183060322235,0,0,0.010381183060322235,5.782318964599485,0)" xlink:href="#aj"/><use transform="matrix(0.010381183060322235,0,0,0.010381183060322235,17.51305582276361,0)" xlink:href="#ak"/><use transform="matrix(0.010381183060322235,0,0,0.010381183060322235,24.89407697865272,0)" xlink:href="#af"/><use transform="matrix(0.010381183060322235,0,0,0.010381183060322235,30.05352495963287,0)" xlink:href="#am"/><use transform="matrix(0.010381183060322235,0,0,0.010381183060322235,41.77388063473667,0)" xlink:href="#aS"/><use transform="matrix(0.010381183060322235,0,0,0.010381183060322235,52.31078144096374,0)" xlink:href="#aR"/><use transform="matrix(0.010381183060322235,0,0,0.010381183060322235,66.2527102909765,0)" xlink:href="#aT"/></g><g id="K"><use transform="matrix(0.010381183060322235,0,0,0.010381183060322235,0,0)" xlink:href="#aQ"/><use transform="matrix(0.010381183060322235,0,0,0.010381183060322235,12.613137418291515,0)" xlink:href="#ad"/><use transform="matrix(0.010381183060322235,0,0,0.010381183060322235,23.876721038741138,0)" xlink:href="#ae"/><use transform="matrix(0.010381183060322235,0,0,0.010381183060322235,31.25774219463025,0)" xlink:href="#au"/><use transform="matrix(0.010381183060322235,0,0,0.010381183060322235,41.420920410685724,0)" xlink:href="#ad"/><use transform="matrix(0.010381183060322235,0,0,0.010381183060322235,52.68450403113535,0)" xlink:href="#ae"/></g><g id="L"><use transform="matrix(0.010381183060322235,0,0,0.010381183060322235,0,0)" xlink:href="#aI"/><use transform="matrix(0.010381183060322235,0,0,0.010381183060322235,11.927979336310248,0)" xlink:href="#ae"/><use transform="matrix(0.010381183060322235,0,0,0.010381183060322235,18.914515535907114,0)" xlink:href="#ag"/><use transform="matrix(0.010381183060322235,0,0,0.010381183060322235,31.039737350363485,0)" xlink:href="#aC"/><use transform="matrix(0.010381183060322235,0,0,0.010381183060322235,42.16836559102892,0)" xlink:href="#ad"/><use transform="matrix(0.010381183060322235,0,0,0.010381183060322235,53.431949211478546,0)" xlink:href="#ac"/><use transform="matrix(0.010381183060322235,0,0,0.010381183060322235,64.39447852317883,0)" xlink:href="#ac"/></g><g id="M"><use transform="matrix(0.010381183060322235,0,0,0.010381183060322235,0,0)" xlink:href="#ac"/><use transform="matrix(0.010381183060322235,0,0,0.010381183060322235,10.96252931170028,0)" xlink:href="#ar"/><use transform="matrix(0.010381183060322235,0,0,0.010381183060322235,17.69991711784941,0)" xlink:href="#ag"/><use transform="matrix(0.010381183060322235,0,0,0.010381183060322235,29.825138932305777,0)" xlink:href="#aI"/><use transform="matrix(0.010381183060322235,0,0,0.010381183060322235,41.75311826861603,0)" xlink:href="#aI"/><use transform="matrix(0.010381183060322235,0,0,0.010381183060322235,53.68109760492628,0)" xlink:href="#ad"/><use transform="matrix(0.010381183060322235,0,0,0.010381183060322235,64.9446812253759,0)" xlink:href="#aL"/></g><g id="N"><use transform="matrix(0.010381183060322235,0,0,0.010381183060322235,0,0)" xlink:href="#ag"/><use transform="matrix(0.010381183060322235,0,0,0.010381183060322235,12.12522181445637,0)" xlink:href="#aj"/></g><g id="O"><use transform="matrix(0.010381183060322235,0,0,0.010381183060322235,0,0)" xlink:href="#ac"/><use transform="matrix(0.010381183060322235,0,0,0.010381183060322235,10.96252931170028,0)" xlink:href="#ar"/><use transform="matrix(0.010381183060322235,0,0,0.010381183060322235,17.907540779055857,0)" xlink:href="#al"/><use transform="matrix(0.010381183060322235,0,0,0.010381183060322235,29.472178708254827,0)" xlink:href="#ar"/><use transform="matrix(0.010381183060322235,0,0,0.010381183060322235,36.4171901756104,0)" xlink:href="#ad"/></g><g id="P"><use transform="matrix(0.010381183060322235,0,0,0.010381183060322235,0,0)" xlink:href="#aC"/><use transform="matrix(0.010381183060322235,0,0,0.010381183060322235,11.128628240665437,0)" xlink:href="#aN"/><use transform="matrix(0.010381183060322235,0,0,0.010381183060322235,22.838602732708924,0)" xlink:href="#al"/><use transform="matrix(0.010381183060322235,0,0,0.010381183060322235,34.40324066190789,0)" xlink:href="#aj"/><use transform="matrix(0.010381183060322235,0,0,0.010381183060322235,46.133977520072015,0)" xlink:href="#ah"/><use transform="matrix(0.010381183060322235,0,0,0.010381183060322235,58.06195685638226,0)" xlink:href="#ad"/></g><g id="Q"><use transform="matrix(0.010381183060322235,0,0,0.010381183060322235,0,0)" xlink:href="#aC"/><use transform="matrix(0.010381183060322235,0,0,0.010381183060322235,11.128628240665437,0)" xlink:href="#ae"/><use transform="matrix(0.010381183060322235,0,0,0.010381183060322235,18.125545623322623,0)" xlink:href="#ad"/><use transform="matrix(0.010381183060322235,0,0,0.010381183060322235,29.389129243772246,0)" xlink:href="#al"/><use transform="matrix(0.010381183060322235,0,0,0.010381183060322235,40.95376717297121,0)" xlink:href="#ar"/></g><g id="R"><use transform="matrix(0.010381183060322235,0,0,0.010381183060322235,0,0)" xlink:href="#ai"/><use transform="matrix(0.010381183060322235,0,0,0.010381183060322235,5.1594479809801514,0)" xlink:href="#aj"/><use transform="matrix(0.010381183060322235,0,0,0.010381183060322235,16.89018483914428,0)" xlink:href="#aC"/><use transform="matrix(0.010381183060322235,0,0,0.010381183060322235,28.018813079809718,0)" xlink:href="#ai"/><use transform="matrix(0.010381183060322235,0,0,0.010381183060322235,33.17826106078987,0)" xlink:href="#aL"/><use transform="matrix(0.010381183060322235,0,0,0.010381183060322235,45.16852749546206,0)" xlink:href="#ad"/><use transform="matrix(0.010381183060322235,0,0,0.010381183060322235,56.43211111591168,0)" xlink:href="#aj"/><use transform="matrix(0.010381183060322235,0,0,0.010381183060322235,68.1628479740758,0)" xlink:href="#ar"/></g><path fill="#2c3458" d="M1216-1011c-1 297-202 441-512 441H361V0H169v-1456h537c297-6 510 164 510 445zm-192 2c1-178-126-288-307-289H361v571h345c196 1 318-92 318-282" id="aU"/><path fill="#2c3458" d="M494-271l252-811h198L509 167C425 381 299 474 84 421V271c167 16 242-37 283-173l41-110L22-1082h202" id="aV"/><g id="S"><use transform="matrix(0.010381183060322235,0,0,0.010381183060322235,0,0)" xlink:href="#aU"/><use transform="matrix(0.010381183060322235,0,0,0.010381183060322235,13.298295500272785,0)" xlink:href="#al"/><use transform="matrix(0.010381183060322235,0,0,0.010381183060322235,24.862933429471752,0)" xlink:href="#ah"/><use transform="matrix(0.010381183060322235,0,0,0.010381183060322235,36.790912765782,0)" xlink:href="#ad"/><use transform="matrix(0.010381183060322235,0,0,0.010381183060322235,48.05449638623162,0)" xlink:href="#ae"/><use transform="matrix(0.010381183060322235,0,0,0.010381183060322235,55.24865624703493,0)" xlink:href="#aR"/><use transform="matrix(0.010381183060322235,0,0,0.010381183060322235,69.19058509704769,0)" xlink:href="#am"/><use transform="matrix(0.010381183060322235,0,0,0.010381183060322235,80.91094077215149,0)" xlink:href="#ar"/><use transform="matrix(0.010381183060322235,0,0,0.010381183060322235,87.85595223950706,0)" xlink:href="#aV"/></g><path fill="#2c3458" d="M524-252c120-1 200-49 194-169-8-162-195-164-324-209-183-64-330-162-324-410 5-208 127-332 287-396 178-72 447-26 571 54 32 21 62 40 88 64l-84 157c-19 43-73 61-124 33-64-36-131-79-234-79-114 0-188 47-188 150 0 109 114 131 206 161 219 72 447 139 444 429-3 234-123 379-300 445-265 98-584-9-722-154l100-158c22-40 88-51 134-21 74 48 151 104 276 103" id="aW"/><path fill="#2c3458" d="M1024-162C926-48 781 16 578 16 325 16 169-111 94-299c-49-123-59-309-6-439 74-183 225-315 476-315 298 0 466 176 466 475 0 66-3 115-70 115H362c16 155 90 243 244 247 98 2 155-39 218-71 37-18 85-16 110 14zM752-643c-3-120-60-196-182-196-129 0-185 80-205 196h387" id="aX"/><path fill="#2c3458" d="M612-820c-81 1-134 39-182 81V0H120v-1037h192c70-3 79 59 94 112 74-70 159-128 302-128 236 0 352 157 352 394V0H750v-659c0-96-44-162-138-161" id="aY"/><path fill="#2c3458" d="M56-725c5-259 241-361 518-318 104 16 188 63 250 124l-70 109c-15 22-27 35-60 35-81 0-126-60-222-60-69 0-122 24-122 85 0 75 88 87 152 109 156 54 328 97 328 304C830-90 649 16 394 16 236 16 110-38 22-112c35-48 58-109 103-146 116-42 152 74 285 65 73-5 130-23 130-90 0-78-87-92-154-113C219-449 52-505 56-725" id="aZ"/><path fill="#2c3458" d="M452 16c-236 0-352-157-352-395v-658h310v658c0 97 43 162 138 161 82-1 133-37 182-80v-739h310V0H848c-67 5-80-61-95-112C679-41 594 16 452 16" id="ba"/><g id="T"><use transform="matrix(0.013529512759343597,0,0,0.013529512759343597,0,0)" xlink:href="#aW"/><use transform="matrix(0.013529512759343597,0,0,0.013529512759343597,14.665991831128459,0)" xlink:href="#aX"/><use transform="matrix(0.013529512759343597,0,0,0.013529512759343597,29.386101713294295,0)" xlink:href="#aY"/><use transform="matrix(0.013529512759343597,0,0,0.013529512759343597,45.08033651413287,0)" xlink:href="#aZ"/><use transform="matrix(0.013529512759343597,0,0,0.013529512759343597,56.98630774235523,0)" xlink:href="#ba"/></g><path fill="#2c3458" d="M1058-1457v260H460v340h458v250H460v347h598V0H120v-1457h938" id="bb"/><path fill="#2c3458" d="M694 0H412L10-1037h258c43-1 77 23 86 54 69 227 146 446 203 684 58-239 142-456 211-684 10-29 42-55 82-54h246" id="bc"/><path fill="#2c3458" d="M774-74c-71 55-172 90-290 90-196 0-304-108-304-303v-536c-70 1-146 12-146-61v-121l165-32 61-253c16-78 146-38 230-48v303h252v212H490v515c0 45 23 83 68 83 48 0 88-50 122 4" id="bd"/><g id="U"><use transform="matrix(0.013529512759343597,0,0,0.013529512759343597,0,0)" xlink:href="#bb"/><use transform="matrix(0.013529512759343597,0,0,0.013529512759343597,15.288349418058266,0)" xlink:href="#bc"/><use transform="matrix(0.013529512759343597,0,0,0.013529512759343597,29.71081001951854,0)" xlink:href="#aX"/><use transform="matrix(0.013529512759343597,0,0,0.013529512759343597,44.430919901684376,0)" xlink:href="#aY"/><use transform="matrix(0.013529512759343597,0,0,0.013529512759343597,60.12515470252295,0)" xlink:href="#bd"/></g><path fill="#2c3458" d="M1220-981c0 346-230 490-586 494H458V0H120v-1457h514c350 4 586 140 586 476zm-338 0c0-152-92-223-248-223H458v462h176c169 2 248-80 248-239" id="be"/><path fill="#2c3458" d="M440-1037V0H130v-1037h310zm-154-466c113 0 190 70 190 182 0 111-79 180-190 180-109 0-184-71-184-180 0-110 74-182 184-182" id="bf"/><path fill="#2c3458" d="M666 16c-111 3-175-34-236-85v398H120v-1366h192c78-3 80 73 99 128 76-81 169-148 323-148 201 0 299 140 348 307 38 128 40 313-4 439-63 179-182 321-412 327zm124-543c0-153-21-288-164-293-99-3-151 43-196 98v440c40 45 88 70 162 70 160 0 198-144 198-315" id="bg"/><path fill="#2c3458" d="M440-1497V0H130v-1497h310" id="bh"/><g id="V"><use transform="matrix(0.013529512759343597,0,0,0.013529512759343597,0,0)" xlink:href="#be"/><use transform="matrix(0.013529512759343597,0,0,0.013529512759343597,17.26365828092243,0)" xlink:href="#bf"/><use transform="matrix(0.013529512759343597,0,0,0.013529512759343597,24.975480553748284,0)" xlink:href="#bg"/><use transform="matrix(0.013529512759343597,0,0,0.013529512759343597,40.61559730354948,0)" xlink:href="#aX"/><use transform="matrix(0.013529512759343597,0,0,0.013529512759343597,55.335707185715314,0)" xlink:href="#bh"/><use transform="matrix(0.013529512759343597,0,0,0.013529512759343597,63.04752945854116,0)" xlink:href="#bf"/><use transform="matrix(0.013529512759343597,0,0,0.013529512759343597,70.75935173136702,0)" xlink:href="#aY"/><use transform="matrix(0.013529512759343597,0,0,0.013529512759343597,86.45358653220559,0)" xlink:href="#aX"/></g></defs></g></svg>