<svg xmlns="http://www.w3.org/2000/svg" xmlns:xlink="http://www.w3.org/1999/xlink" xmlns:lucid="lucid" width="1312" height="576"><g transform="translate(-1248 0)" lucid:page-tab-id="0_0"><path d="M1560 20h249.15v330.83H1560z" stroke="#000" stroke-opacity="0" stroke-width="2" fill="#f0f0f0"/><path d="M1606.6 38.3h155.95V84H1606.6z" stroke="#000" stroke-opacity="0" stroke-width="2" fill="#fff" fill-opacity="0"/><use xlink:href="#a" transform="matrix(1,0,0,1,1611.6020475977034,43.289572310405674) translate(7.197771990740733 19.644923941798943)"/><use xlink:href="#b" transform="matrix(1,0,0,1,1611.6020475977034,43.289572310405674) translate(37.61175181878306 19.644923941798943)"/><path d="M1594.58 100h180v60h-180z" stroke="#000" stroke-opacity="0" stroke-width="2" fill="#fff"/><use xlink:href="#c" transform="matrix(1,0,0,1,1599.577185077886,105) translate(52.08056640625 31.2314453125)"/><use xlink:href="#d" transform="matrix(1,0,0,1,1599.577185077886,105) translate(106.22119140625 31.2314453125)"/><path d="M1594.58 181h180v60h-180z" stroke="#000" stroke-opacity="0" stroke-width="2" fill="#fff"/><use xlink:href="#c" transform="matrix(1,0,0,1,1599.577185077886,186) translate(52.15087890625 31.2314453125)"/><use xlink:href="#e" transform="matrix(1,0,0,1,1599.577185077886,186) translate(106.29150390625 31.2314453125)"/><path d="M1594.58 262h180v60h-180z" stroke="#000" stroke-opacity="0" stroke-width="2" fill="#fff"/><use xlink:href="#c" transform="matrix(1,0,0,1,1599.577185077886,267) translate(52.19482421875 31.2314453125)"/><use xlink:href="#f" transform="matrix(1,0,0,1,1599.577185077886,267) translate(106.33544921875 31.2314453125)"/><path d="M1280 38.3h200V84h-200z" stroke="#000" stroke-opacity="0" stroke-width="2" fill="#fff" fill-opacity="0"/><use xlink:href="#g" transform="matrix(1,0,0,1,1285,43.289572310405674) translate(0 22.68988715277778)"/><use xlink:href="#h" transform="matrix(1,0,0,1,1285,43.289572310405674) translate(113.00781250000001 22.68988715277778)"/><path d="M1280 102.3h254.58v66.8H1280z" stroke="#000" stroke-opacity="0" stroke-width="2" fill="#fff" fill-opacity="0"/><use xlink:href="#i" transform="matrix(1,0,0,1,1285,107.29343033509667) translate(0 18.564453125)"/><use xlink:href="#j" transform="matrix(1,0,0,1,1285,107.29343033509667) translate(120.01953125 18.564453125)"/><use xlink:href="#k" transform="matrix(1,0,0,1,1285,107.29343033509667) translate(0 41.845703125)"/><use xlink:href="#l" transform="matrix(1,0,0,1,1285,107.29343033509667) translate(156.025390625 41.845703125)"/><path d="M1920 20h249.15v330.83H1920z" stroke="#000" stroke-opacity="0" stroke-width="2" fill="#f0f0f0"/><path d="M1966.6 38.3h155.95V84H1966.6z" stroke="#000" stroke-opacity="0" stroke-width="2" fill="#fff" fill-opacity="0"/><use xlink:href="#m" transform="matrix(1,0,0,1,1971.6020475977034,43.289572310405674) translate(4.680410879629633 19.644923941798943)"/><use xlink:href="#b" transform="matrix(1,0,0,1,1971.6020475977034,43.289572310405674) translate(40.129112929894184 19.644923941798943)"/><path d="M1954.58 100h180v60h-180z" stroke="#000" stroke-opacity="0" stroke-width="2" fill="#fff"/><use xlink:href="#c" transform="matrix(1,0,0,1,1959.577185077886,105) translate(52.08056640625 31.2314453125)"/><use xlink:href="#d" transform="matrix(1,0,0,1,1959.577185077886,105) translate(106.22119140625 31.2314453125)"/><path d="M1954.58 181h180v60h-180z" stroke="#000" stroke-opacity="0" stroke-width="2" fill="#fff"/><use xlink:href="#c" transform="matrix(1,0,0,1,1959.577185077886,186) translate(52.15087890625 31.2314453125)"/><use xlink:href="#e" transform="matrix(1,0,0,1,1959.577185077886,186) translate(106.29150390625 31.2314453125)"/><path d="M1954.58 262h180v60h-180z" stroke="#000" stroke-opacity="0" stroke-width="2" fill="#fff"/><use xlink:href="#c" transform="matrix(1,0,0,1,1959.577185077886,267) translate(52.19482421875 31.2314453125)"/><use xlink:href="#f" transform="matrix(1,0,0,1,1959.577185077886,267) translate(106.33544921875 31.2314453125)"/><path d="M2280 20h249.15v330.83H2280z" stroke="#000" stroke-opacity="0" stroke-width="2" fill="#f0f0f0"/><path d="M2326.6 38.3h155.95V84H2326.6z" stroke="#000" stroke-opacity="0" stroke-width="2" fill="#fff" fill-opacity="0"/><use xlink:href="#n" transform="matrix(1,0,0,1,2331.6020475977034,43.289572310405674) translate(6.109085648148152 19.644923941798943)"/><use xlink:href="#b" transform="matrix(1,0,0,1,2331.6020475977034,43.289572310405674) translate(38.700438161375665 19.644923941798943)"/><path d="M2314.58 100h180v60h-180z" stroke="#000" stroke-opacity="0" stroke-width="2" fill="#fff"/><use xlink:href="#c" transform="matrix(1,0,0,1,2319.577185077886,105) translate(52.08056640625 31.2314453125)"/><use xlink:href="#d" transform="matrix(1,0,0,1,2319.577185077886,105) translate(106.22119140625 31.2314453125)"/><path d="M2314.58 181h180v60h-180z" stroke="#000" stroke-opacity="0" stroke-width="2" fill="#fff"/><use xlink:href="#c" transform="matrix(1,0,0,1,2319.577185077886,186) translate(52.15087890625 31.2314453125)"/><use xlink:href="#e" transform="matrix(1,0,0,1,2319.577185077886,186) translate(106.29150390625 31.2314453125)"/><path d="M2314.58 262h180v60h-180z" stroke="#000" stroke-opacity="0" stroke-width="2" fill="#fff"/><use xlink:href="#c" transform="matrix(1,0,0,1,2319.577185077886,267) translate(52.19482421875 31.2314453125)"/><use xlink:href="#f" transform="matrix(1,0,0,1,2319.577185077886,267) translate(106.33544921875 31.2314453125)"/><path d="M1810.15 185.42h91.35" stroke="#666" stroke-width="2" fill="none"/><path d="M1810.18 186.42h-1.03v-2h1.03z" fill="#666"/><path d="M1916.76 185.42l-14.26 4.63v-9.27z" stroke="#666" stroke-width="2" fill="#666"/><use xlink:href="#o" transform="matrix(1,0,0,1,1825.5819593055558,189.41666666666674) translate(0 24.43901909722222)"/><use xlink:href="#p" transform="matrix(1,0,0,1,1825.5819593055558,189.41666666666674) translate(21.17621527777778 24.43901909722222)"/><path d="M2170.15 185.42h91.35" stroke="#666" stroke-width="2" fill="none"/><path d="M2170.18 186.42h-1.03v-2h1.03z" fill="#666"/><path d="M2276.76 185.42l-14.26 4.63v-9.27z" stroke="#666" stroke-width="2" fill="#666"/><use xlink:href="#o" transform="matrix(1,0,0,1,2185.5819593055558,189.41666666666674) translate(0 24.43901909722222)"/><use xlink:href="#p" transform="matrix(1,0,0,1,2185.5819593055558,189.41666666666674) translate(21.17621527777778 24.43901909722222)"/><path d="M1560 382.17h249.15v168.66H1560z" stroke="#000" stroke-opacity="0" stroke-width="2" fill="#f0f0f0"/><path d="M1606.6 400.46h155.95v45.7H1606.6z" stroke="#000" stroke-opacity="0" stroke-width="2" fill="#fff" fill-opacity="0"/><use xlink:href="#a" transform="matrix(1,0,0,1,1611.6020475977034,405.4562389770722) translate(7.197771990740733 19.644923941798943)"/><use xlink:href="#b" transform="matrix(1,0,0,1,1611.6020475977034,405.4562389770722) translate(37.61175181878306 19.644923941798943)"/><path d="M1594.58 462.17h180v60h-180z" stroke="#000" stroke-opacity="0" stroke-width="2" fill="#fff"/><use xlink:href="#c" transform="matrix(1,0,0,1,1599.577185077886,467.1666666666665) translate(52.08056640625 31.2314453125)"/><use xlink:href="#d" transform="matrix(1,0,0,1,1599.577185077886,467.1666666666665) translate(106.22119140625 31.2314453125)"/><path d="M1280 400.46h240v45.7h-240z" stroke="#000" stroke-opacity="0" stroke-width="2" fill="#fff" fill-opacity="0"/><use xlink:href="#q" transform="matrix(1,0,0,1,1285,405.4562389770722) translate(0 22.68988715277778)"/><use xlink:href="#r" transform="matrix(1,0,0,1,1285,405.4562389770722) translate(152.6703559027778 22.68988715277778)"/><path d="M1280 464.46h254.58v66.82H1280z" stroke="#000" stroke-opacity="0" stroke-width="2" fill="#fff" fill-opacity="0"/><g><use xlink:href="#i" transform="matrix(1,0,0,1,1285,469.46009700176324) translate(0 18.564453125)"/><use xlink:href="#j" transform="matrix(1,0,0,1,1285,469.46009700176324) translate(120.01953125 18.564453125)"/><use xlink:href="#k" transform="matrix(1,0,0,1,1285,469.46009700176324) translate(0 41.845703125)"/><use xlink:href="#s" transform="matrix(1,0,0,1,1285,469.46009700176324) translate(156.025390625 41.845703125)"/></g><path d="M1920 382.17h249.15v168.66H1920z" stroke="#000" stroke-opacity="0" stroke-width="2" fill="#f0f0f0"/><path d="M1966.6 400.46h155.95v45.7H1966.6z" stroke="#000" stroke-opacity="0" stroke-width="2" fill="#fff" fill-opacity="0"/><g><use xlink:href="#m" transform="matrix(1,0,0,1,1971.6020475977034,405.4562389770722) translate(4.680410879629633 19.644923941798943)"/><use xlink:href="#b" transform="matrix(1,0,0,1,1971.6020475977034,405.4562389770722) translate(40.129112929894184 19.644923941798943)"/></g><path d="M1954.58 460.38h180v60h-180z" stroke="#000" stroke-opacity="0" stroke-width="2" fill="#fff"/><g><use xlink:href="#c" transform="matrix(1,0,0,1,1959.577185077886,465.3809523809523) translate(52.15087890625 31.2314453125)"/><use xlink:href="#e" transform="matrix(1,0,0,1,1959.577185077886,465.3809523809523) translate(106.29150390625 31.2314453125)"/></g><path d="M2280 382.17h249.15v168.66H2280z" stroke="#000" stroke-opacity="0" stroke-width="2" fill="#f0f0f0"/><path d="M2326.6 400.46h155.95v45.7H2326.6z" stroke="#000" stroke-opacity="0" stroke-width="2" fill="#fff" fill-opacity="0"/><g><use xlink:href="#n" transform="matrix(1,0,0,1,2331.6020475977034,405.4562389770722) translate(6.109085648148152 19.644923941798943)"/><use xlink:href="#b" transform="matrix(1,0,0,1,2331.6020475977034,405.4562389770722) translate(38.700438161375665 19.644923941798943)"/></g><path d="M2314.58 462.17h180v60h-180z" stroke="#000" stroke-opacity="0" stroke-width="2" fill="#fff"/><g><use xlink:href="#c" transform="matrix(1,0,0,1,2319.577185077886,467.1666666666665) translate(52.19482421875 31.2314453125)"/><use xlink:href="#f" transform="matrix(1,0,0,1,2319.577185077886,467.1666666666665) translate(106.33544921875 31.2314453125)"/></g><path d="M1810.15 466.5h91.35" stroke="#666" stroke-width="2" fill="none"/><path d="M1810.18 467.5h-1.03v-2h1.03z" fill="#666"/><path d="M1916.76 466.5l-14.26 4.64v-9.28z" stroke="#666" stroke-width="2" fill="#666"/><g><use xlink:href="#o" transform="matrix(1,0,0,1,1825.5819593055558,470.5) translate(0 24.43901909722222)"/><use xlink:href="#p" transform="matrix(1,0,0,1,1825.5819593055558,470.5) translate(21.17621527777778 24.43901909722222)"/></g><path d="M2170.15 466.5h91.35" stroke="#666" stroke-width="2" fill="none"/><path d="M2170.18 467.5h-1.03v-2h1.03z" fill="#666"/><path d="M2276.76 466.5l-14.26 4.64v-9.28z" stroke="#666" stroke-width="2" fill="#666"/><g><use xlink:href="#o" transform="matrix(1,0,0,1,2185.5819593055558,470.5) translate(0 24.43901909722222)"/><use xlink:href="#p" transform="matrix(1,0,0,1,2185.5819593055558,470.5) translate(21.17621527777778 24.43901909722222)"/></g><defs><path fill="#4f4f4f" d="M817 0H508c2-379-6-768 8-1137-81 89-181 159-274 236L92-1087l471-375h254V0" id="t"/><path fill="#4f4f4f" d="M518-913c-85-3-135 42-110 117 96 111 309 141 412 247 51 53 87 114 85 217C900-74 714 17 451 20 309 22 197-1 100-45v-252c100 47 213 89 351 94 97 3 174-39 147-137-20-36-53-53-98-78C329-513 87-555 98-827c9-232 182-312 420-312 155 0 260 38 375 92l-92 216c-88-39-170-78-283-82" id="u"/><path fill="#4f4f4f" d="M498-350c-2 81 42 126 116 127 66 1 116-17 168-35v227C722-1 631 20 537 20c-238 0-345-128-344-370v-539H47v-129l168-102 88-236h195v238h272v229H498v539" id="v"/><g id="a"><use transform="matrix(0.01033399470899471,0,0,0.01033399470899471,0,0)" xlink:href="#t"/><use transform="matrix(0.007233796296296296,0,0,0.007233796296296296,11.656746031746032,-6.87572337962963)" xlink:href="#u"/><use transform="matrix(0.007233796296296296,0,0,0.007233796296296296,18.782035383597883,-6.87572337962963)" xlink:href="#v"/></g><path fill="#4f4f4f" d="M805-686c-5-136-57-236-193-236-128 0-189 96-196 236h389zm223 627C927-5 807 23 651 20c-359-7-549-205-549-571 0-358 158-588 508-588 318 0 476 187 482 508v148H410c8 169 89 274 262 276 149 2 255-38 356-88v236" id="w"/><path fill="#4f4f4f" d="M389-571L29-1118h346l186 336 189-336h346L731-571 1112 0H766L561-362 356 0H10" id="x"/><path fill="#4f4f4f" d="M924-53c-85 42-173 74-299 73-359-3-522-207-523-573-1-378 152-588 523-586 127 1 241 34 331 80l-88 232c-74-31-150-66-243-66-173 0-211 143-211 338 0 193 38 328 207 328 128 0 209-38 303-80v254" id="y"/><path fill="#4f4f4f" d="M612-223c188 0 207-177 207-369v-526h305V0H891l-41-143h-16C774-43 673 20 518 20c-251 0-364-152-364-409v-729h305v653c2 140 28 242 153 242" id="z"/><path fill="#4f4f4f" d="M313-1257c-103 0-166-45-166-150s62-149 166-149 166 45 166 149-63 150-166 150zM465 0H160v-1118h305V0" id="A"/><path fill="#4f4f4f" d="M612-893c-166 0-198 142-198 332 0 111 16 195 47 251s82 85 153 85c166 0 199-148 199-336 0-191-32-332-201-332zM102-561c0-355 164-578 514-578 341 0 508 230 508 578 0 356-164 581-514 581-341 0-508-232-508-581" id="B"/><path fill="#4f4f4f" d="M766-1139c252 0 364 153 364 410V0H825v-653c-2-140-28-242-153-242-188 0-207 177-207 369V0H160v-1118h233l41 143h17c59-101 160-164 315-164" id="C"/><g id="b"><use transform="matrix(0.01033399470899471,0,0,0.01033399470899471,0,0)" xlink:href="#w"/><use transform="matrix(0.01033399470899471,0,0,0.01033399470899471,12.297453703703704,0)" xlink:href="#x"/><use transform="matrix(0.01033399470899471,0,0,0.01033399470899471,23.89219576719577,0)" xlink:href="#w"/><use transform="matrix(0.01033399470899471,0,0,0.01033399470899471,36.18964947089947,0)" xlink:href="#y"/><use transform="matrix(0.01033399470899471,0,0,0.01033399470899471,46.75099206349206,0)" xlink:href="#z"/><use transform="matrix(0.01033399470899471,0,0,0.01033399470899471,60.01984126984127,0)" xlink:href="#v"/><use transform="matrix(0.01033399470899471,0,0,0.01033399470899471,68.78306878306879,0)" xlink:href="#A"/><use transform="matrix(0.01033399470899471,0,0,0.01033399470899471,75.24181547619048,0)" xlink:href="#B"/><use transform="matrix(0.01033399470899471,0,0,0.01033399470899471,87.92162698412699,0)" xlink:href="#C"/></g><path fill="#5380d1" d="M590-1141c273 0 433 125 432 396V0H809l-59-152h-9C668-49 580 25 403 20 190 14 86-114 86-334c0-265 181-343 455-356l178-6v-84c1-94-58-135-152-135-112 0-196 37-278 77l-99-202c105-58 242-101 400-101zm-68 938c131 0 194-88 197-223v-92c-169 0-320 14-320 186 0 87 44 129 123 129" id="D"/><path fill="#5380d1" d="M958-750c0 287-215 410-516 373-23 21-43 40-43 80 0 65 84 66 154 66h174c217 1 346 94 346 311 0 316-268 412-598 412-204 0-358-51-427-181-20-38-28-81-28-129C20 17 134-50 268-84c-59-30-116-78-116-162 0-108 74-145 143-190-112-47-193-164-191-320 4-261 163-383 428-383 60 0 123 12 173 23h380v166l-163 51c25 42 36 87 36 149zM602 20c-155-5-314-10-317 138-4 179 338 139 439 85 53-28 79-69 79-118 0-102-85-101-201-105zm66-772c0-110-30-196-136-196-91 0-137 65-137 196 0 109 35 191 137 191 105 0 136-80 136-191" id="E"/><path fill="#5380d1" d="M805-686c-5-136-57-236-193-236-128 0-189 96-196 236h389zm223 627C927-5 807 23 651 20c-359-7-549-205-549-571 0-358 158-588 508-588 318 0 476 187 482 508v148H410c8 169 89 274 262 276 149 2 255-38 356-88v236" id="F"/><path fill="#5380d1" d="M766-1139c252 0 364 153 364 410V0H825v-653c-2-140-28-242-153-242-188 0-207 177-207 369V0H160v-1118h233l41 143h17c59-101 160-164 315-164" id="G"/><path fill="#5380d1" d="M498-350c-2 81 42 126 116 127 66 1 116-17 168-35v227C722-1 631 20 537 20c-238 0-345-128-344-370v-539H47v-129l168-102 88-236h195v238h272v229H498v539" id="H"/><g id="c"><use transform="matrix(0.0087890625,0,0,0.0087890625,0,0)" xlink:href="#D"/><use transform="matrix(0.0087890625,0,0,0.0087890625,10.3359375,0)" xlink:href="#E"/><use transform="matrix(0.0087890625,0,0,0.0087890625,20.267578125,0)" xlink:href="#F"/><use transform="matrix(0.0087890625,0,0,0.0087890625,30.7265625,0)" xlink:href="#G"/><use transform="matrix(0.0087890625,0,0,0.0087890625,42.01171875,0)" xlink:href="#H"/></g><path fill="#5380d1" d="M1018 0L918-348H414L313 0H0l475-1468h379L1331 0h-313zM846-608c-60-218-134-421-180-654-48 230-116 438-177 654h357" id="I"/><use transform="matrix(0.0087890625,0,0,0.0087890625,0,0)" xlink:href="#I" id="d"/><path fill="#5380d1" d="M1206-424C1199-129 1000 0 700 0H184v-1462c441 11 993-85 985 370-3 174-78 286-225 316v10c166 34 267 137 262 342zm-346-627c-3-126-82-157-219-157H494v325h161c129 1 208-41 205-168zm33 596c0-135-86-182-225-182H494v381h182c142 1 218-60 217-199" id="J"/><use transform="matrix(0.0087890625,0,0,0.0087890625,0,0)" xlink:href="#J" id="e"/><path fill="#5380d1" d="M1133-1128c-95-42-202-97-328-97-273 0-367 217-367 498 0 284 86 489 367 489 146 0 251-36 373-77v260C1064-7 937 22 776 20c-458-5-657-289-657-749 0-352 143-590 392-699 142-63 342-72 513-28 73 18 142 44 209 76" id="K"/><use transform="matrix(0.0087890625,0,0,0.0087890625,0,0)" xlink:href="#K" id="f"/><path fill="#4f4f4f" d="M575-1225c-123-5-198 106-149 217 37 85 130 114 217 164 168 97 342 180 342 438 0 295-202 426-504 426-152 0-284-33-387-88v-288c118 53 234 120 398 120 115 0 190-43 190-155 0-146-139-181-242-240-159-90-329-188-329-436 0-313 235-447 565-409 116 14 211 53 303 96l-100 241c-93-41-177-81-304-86" id="L"/><path fill="#4f4f4f" d="M590-1141c273 0 433 125 432 396V0H809l-59-152h-9C668-49 580 25 403 20 190 14 86-114 86-334c0-265 181-343 455-356l178-6v-84c1-94-58-135-152-135-112 0-196 37-278 77l-99-202c105-58 242-101 400-101zm-68 938c131 0 194-88 197-223v-92c-169 0-320 14-320 186 0 87 44 129 123 129" id="M"/><path fill="#4f4f4f" d="M780-145C722-51 639 20 489 20c-296 0-387-264-387-577 0-260 69-456 235-545 48-26 102-37 161-37 150 1 235 72 295 164h10c-34-168-20-382-23-581h305V0H852l-59-145h-13zm21-377c0-193-14-368-203-369-64 0-108 31-141 87-57 98-58 402 1 498 33 54 77 83 142 83 166 0 201-133 201-299" id="N"/><path fill="#4f4f4f" d="M451-950c59-103 132-188 292-189 34 0 70 3 97 9v286c-30-7-71-10-107-10-182 1-269 99-268 285V0H160v-1118h231l45 168h15" id="O"/><g id="g"><use transform="matrix(0.01193576388888889,0,0,0.01193576388888889,0,0)" xlink:href="#L"/><use transform="matrix(0.01193576388888889,0,0,0.01193576388888889,12.807074652777779,0)" xlink:href="#v"/><use transform="matrix(0.01193576388888889,0,0,0.01193576388888889,22.928602430555557,0)" xlink:href="#M"/><use transform="matrix(0.01193576388888889,0,0,0.01193576388888889,36.96506076388889,0)" xlink:href="#C"/><use transform="matrix(0.01193576388888889,0,0,0.01193576388888889,52.29058159722223,0)" xlink:href="#N"/><use transform="matrix(0.01193576388888889,0,0,0.01193576388888889,67.1506076388889,0)" xlink:href="#M"/><use transform="matrix(0.01193576388888889,0,0,0.01193576388888889,81.18706597222223,0)" xlink:href="#O"/><use transform="matrix(0.01193576388888889,0,0,0.01193576388888889,91.79796006944446,0)" xlink:href="#N"/></g><path fill="#4f4f4f" d="M764-1139c253 0 366 152 366 410V0H825v-653c-1-139-31-242-153-242-187 0-207 177-207 369V0H160v-1556h305c-1 197 5 403-14 581h16c57-104 150-164 297-164" id="P"/><path fill="#4f4f4f" d="M453-608l112-170 273-340h344L778-633 1208 0H856L584-430l-119 82V0H160v-1556h305v694l-16 254h4" id="Q"/><g id="h"><use transform="matrix(0.01193576388888889,0,0,0.01193576388888889,0,0)" xlink:href="#y"/><use transform="matrix(0.01193576388888889,0,0,0.01193576388888889,12.198350694444445,0)" xlink:href="#P"/><use transform="matrix(0.01193576388888889,0,0,0.01193576388888889,27.52387152777778,0)" xlink:href="#w"/><use transform="matrix(0.01193576388888889,0,0,0.01193576388888889,41.72743055555556,0)" xlink:href="#y"/><use transform="matrix(0.01193576388888889,0,0,0.01193576388888889,53.92578125000001,0)" xlink:href="#Q"/></g><path fill="#4f4f4f" d="M739-1436c0 71-43 115-106 115-71 0-107-38-107-115 0-76 36-114 107-114s106 38 106 114zM541-954l-269-21v-123h451v955l352 20V0H197v-123l344-20v-811" id="R"/><path fill="#4f4f4f" d="M887 0v-707c0-173-79-260-238-260-205 0-307 133-307 398V0H160v-1098h147l27 148h10c69-112 181-168 336-168 259 0 389 134 389 401V0H887" id="S"/><path fill="#4f4f4f" d="M1020-150v138C933 9 849 20 768 20 527 20 406-95 406-324v-637H139v-94l267-49 77-287h105v293h438v137H588v637c0 130 64 195 192 195 62 0 142-7 240-21" id="T"/><path fill="#4f4f4f" d="M631-1118c283 0 470 204 465 491v113H322c5 250 120 375 344 375 130 0 253-25 370-76v160C925-5 804 20 672 20c-329 0-539-224-539-561 0-331 182-577 498-577zM326-662h573c0-203-91-305-272-305-183 0-284 102-301 305" id="U"/><path fill="#4f4f4f" d="M442-897c93-139 173-221 377-221 79 0 159 15 240 45l-49 166c-82-30-157-45-224-45-221 0-340 134-340 360V0H264v-1098h148l22 201h8" id="V"/><path fill="#4f4f4f" d="M498 0L82-1098h188l240 652c57 154 90 262 100 325h6c67-256 244-708 340-977h189L729 0H498" id="W"/><path fill="#4f4f4f" d="M596-1118c288 2 430 92 430 366V0H895l-37-152h-8C752-34 680 17 483 20 272 23 135-98 135-307c0-221 170-337 510-348l203-7c15-197-55-305-244-305-98 0-207 27-328 82l-63-137c131-64 258-96 383-96zm-72 991c194 0 325-116 322-311v-99c-251 15-522-6-522 232 0 119 67 178 200 178" id="X"/><path fill="#4f4f4f" d="M532-1413l-268-21v-122h451v1413l352 20V0H188v-123l344-20v-1270" id="Y"/><path fill="#4f4f4f" d="M614-1126c85 0 127 46 127 139s-42 139-127 139-127-46-127-139 42-139 127-139zm0 876c85 0 127 46 127 139S699 29 614 29 487-18 487-111s42-139 127-139" id="Z"/><g id="i"><use transform="matrix(0.009765625,0,0,0.009765625,0,0)" xlink:href="#R"/><use transform="matrix(0.009765625,0,0,0.009765625,12.001953125,0)" xlink:href="#S"/><use transform="matrix(0.009765625,0,0,0.009765625,24.00390625,0)" xlink:href="#T"/><use transform="matrix(0.009765625,0,0,0.009765625,36.005859375,0)" xlink:href="#U"/><use transform="matrix(0.009765625,0,0,0.009765625,48.0078125,0)" xlink:href="#V"/><use transform="matrix(0.009765625,0,0,0.009765625,60.009765625,0)" xlink:href="#W"/><use transform="matrix(0.009765625,0,0,0.009765625,72.01171875,0)" xlink:href="#X"/><use transform="matrix(0.009765625,0,0,0.009765625,84.013671875,0)" xlink:href="#Y"/><use transform="matrix(0.009765625,0,0,0.009765625,96.015625,0)" xlink:href="#Z"/></g><path fill="#4f4f4f" d="M1075-471c0 288-166 493-444 491-145 0-261-56-347-168S154-420 154-625c0-572 213-858 639-858 69 0 127 6 172 19v155c-47-16-103-24-166-24-149 0-262 47-337 141S347-949 340-745h12c63-113 166-170 307-170 262 0 416 178 416 444zM629-133c183-3 270-141 270-338 0-183-88-297-264-301-154-4-299 123-299 266 0 185 113 376 293 373" id="aa"/><path fill="#4f4f4f" d="M612 20c-153 0-268-65-347-194S147-489 147-733c0-501 155-752 465-752 155 0 271 64 350 193s119 316 119 559c0 502-156 753-469 753zm0-155c98 0 165-50 216-141 86-153 87-759 0-912-51-91-118-141-216-141-97 0-162 49-212 139-85 152-84 764 0 915 50 90 115 140 212 140" id="ab"/><g id="j"><use transform="matrix(0.009765625,0,0,0.009765625,0,0)" xlink:href="#aa"/><use transform="matrix(0.009765625,0,0,0.009765625,12.001953125,0)" xlink:href="#ab"/></g><path fill="#4f4f4f" d="M1112-551c0 331-186 571-502 571-301 0-495-251-495-571 0-330 184-567 501-567 302 0 496 249 496 567zM614-131c207 0 310-140 310-420 0-277-104-416-312-416-206 0-309 139-309 416 0 280 104 420 311 420" id="ac"/><path fill="#4f4f4f" d="M578-131c239 0 309-137 309-397v-570h182V0H922l-27-147h-10C815-36 704 20 551 20c-261 0-391-134-391-401v-717h182v707c0 173 79 260 236 260" id="ad"/><path fill="#4f4f4f" d="M137-547c0-322 136-571 430-571 137 0 245 53 322 160h12c-24-215-7-376-12-598h182V0H924l-27-147h-8C814-36 706 20 567 20c-294 0-430-246-430-567zm463 416c241 0 288-157 289-416 0-151-23-259-69-323s-121-97-222-97c-181 0-272 141-272 422 0 276 91 414 274 414" id="ae"/><path fill="#4f4f4f" d="M1243 324H-16V184h1259v140" id="af"/><path fill="#4f4f4f" d="M1092-551c0 322-136 571-430 571-138 0-245-53-322-159h-12L291 0H158v-1556h182c-2 221 6 379-8 602h8c71-109 179-164 322-164 294 0 430 246 430 567zM629-967c-241 0-289 146-289 416 0 151 24 259 70 323s120 97 221 97c181 0 272-141 272-422 0-276-91-414-274-414" id="ag"/><g id="k"><use transform="matrix(0.009765625,0,0,0.009765625,0,0)" xlink:href="#V"/><use transform="matrix(0.009765625,0,0,0.009765625,12.001953125,0)" xlink:href="#ac"/><use transform="matrix(0.009765625,0,0,0.009765625,24.00390625,0)" xlink:href="#ad"/><use transform="matrix(0.009765625,0,0,0.009765625,36.005859375,0)" xlink:href="#S"/><use transform="matrix(0.009765625,0,0,0.009765625,48.0078125,0)" xlink:href="#ae"/><use transform="matrix(0.009765625,0,0,0.009765625,60.009765625,0)" xlink:href="#af"/><use transform="matrix(0.009765625,0,0,0.009765625,72.01171875,0)" xlink:href="#V"/><use transform="matrix(0.009765625,0,0,0.009765625,84.013671875,0)" xlink:href="#ac"/><use transform="matrix(0.009765625,0,0,0.009765625,96.015625,0)" xlink:href="#ag"/><use transform="matrix(0.009765625,0,0,0.009765625,108.017578125,0)" xlink:href="#R"/><use transform="matrix(0.009765625,0,0,0.009765625,120.01953125,0)" xlink:href="#S"/><use transform="matrix(0.009765625,0,0,0.009765625,132.021484375,0)" xlink:href="#Z"/></g><path fill="#4f4f4f" d="M866-1417c-164 2-207 56-211 215v104h389v137H655V0H473v-961H156v-110l317-33c-17-319 78-463 389-463 86 0 170 12 252 35l-41 143c-69-19-138-28-207-28" id="ah"/><path fill="#4f4f4f" d="M1026-301c0 225-197 321-448 321-165 0-290-23-375-69v-166c129 57 252 86 370 86 183 0 275-54 275-162 0-38-16-71-49-99s-108-63-226-106c-156-57-253-112-293-160s-61-105-61-171c2-338 524-340 789-217l-60 149c-121-48-228-72-319-72-157 0-236 44-236 133 0 41 17 74 51 98s111 57 232 101c141 51 234 101 280 151s70 111 70 183" id="ai"/><g id="l"><use transform="matrix(0.009765625,0,0,0.009765625,0,0)" xlink:href="#ah"/><use transform="matrix(0.009765625,0,0,0.009765625,12.001953125,0)" xlink:href="#X"/><use transform="matrix(0.009765625,0,0,0.009765625,24.00390625,0)" xlink:href="#Y"/><use transform="matrix(0.009765625,0,0,0.009765625,36.005859375,0)" xlink:href="#ai"/><use transform="matrix(0.009765625,0,0,0.009765625,48.0078125,0)" xlink:href="#U"/></g><path fill="#4f4f4f" d="M569-1483c277 0 453 138 453 412 0 218-121 343-232 469-98 112-217 220-323 328v14h596V0H82v-215c152-165 315-332 462-500 85-97 167-185 171-354 3-98-66-159-164-156-139 4-214 73-305 150L78-1274c122-111 258-209 491-209" id="aj"/><g id="m"><use transform="matrix(0.01033399470899471,0,0,0.01033399470899471,0,0)" xlink:href="#aj"/><use transform="matrix(0.007233796296296296,0,0,0.007233796296296296,11.656746031746032,-6.87572337962963)" xlink:href="#C"/><use transform="matrix(0.007233796296296296,0,0,0.007233796296296296,20.944940476190474,-6.87572337962963)" xlink:href="#N"/></g><path fill="#4f4f4f" d="M59-1339c117-85 265-144 467-144 211 0 371 65 446 201 23 43 34 92 34 147 0 217-139 318-316 365v6c211 26 359 121 359 338 0 321-242 446-576 446C310 20 173-7 57-59v-263c106 54 231 97 385 97 176 0 297-50 297-219 0-203-236-197-456-197v-217c217 5 419-8 419-209 0-115-74-168-202-166-125 1-211 49-285 100" id="ak"/><g id="n"><use transform="matrix(0.01033399470899471,0,0,0.01033399470899471,0,0)" xlink:href="#ak"/><use transform="matrix(0.007233796296296296,0,0,0.007233796296296296,11.656746031746032,-6.87572337962963)" xlink:href="#O"/><use transform="matrix(0.007233796296296296,0,0,0.007233796296296296,18.08759093915344,-6.87572337962963)" xlink:href="#N"/></g><path fill="#666" d="M1034-471c0 300-148 491-444 491-348 0-477-279-477-645 0-493 145-854 639-858 61 0 124 6 172 19v155c-88-31-234-31-324-3-221 69-291 288-301 567h12c57-101 150-170 307-170 275 0 416 167 416 444zm-176 0c0-185-81-301-264-301-140 0-234 72-278 170-52 116-2 271 52 349 45 64 115 122 220 120 193-4 270-137 270-338" id="al"/><path fill="#666" d="M916-1288c151 242 158 851 8 1109C854-58 745 20 563 20c-277 0-388-195-437-436-56-279-34-685 78-870 72-118 178-199 359-199 176 0 281 81 353 197zm-484-4c-174 125-166 531-134 821 20 181 74 336 265 336s248-155 269-335c34-292 39-699-138-822-68-48-195-48-262 0" id="am"/><g id="o"><use transform="matrix(0.007595486111111112,0,0,0.007595486111111112,0,0)" xlink:href="#al"/><use transform="matrix(0.007595486111111112,0,0,0.007595486111111112,8.567708333333334,0)" xlink:href="#am"/></g><path fill="#666" d="M481-967c-140-5-232 63-189 190 66 110 246 141 360 208 97 57 179 119 179 268C831-65 655 18 414 20 275 21 175-1 90-49v-166c89 44 194 82 324 86 154 5 272-60 229-214-87-145-336-165-454-283-49-49-83-106-83-201 0-211 164-288 381-291 135-2 236 33 330 76l-63 147c-79-33-167-68-273-72" id="an"/><path fill="#666" d="M944-53C850-7 748 24 608 20c-333-9-495-220-495-561 0-264 92-451 269-538 104-51 258-51 363-3 158 72 246 228 248 455v113H301c6 236 86 371 309 375 139 2 240-31 334-76v162zM797-662c-2-176-59-305-234-305-171 0-246 129-258 305h492" id="ao"/><path fill="#666" d="M860-39C784 1 712 22 594 20c-333-6-481-218-481-563 0-354 148-568 489-575 100-2 211 26 277 59l-54 154c-63-26-137-53-223-53-235 0-301 158-301 413 0 251 67 400 293 406 107 3 193-30 266-62v162" id="ap"/><path fill="#666" d="M113-551c0-340 147-567 481-567 325 0 475 233 475 567 0 342-147 571-481 571-325 0-475-235-475-571zm477-416c-231 0-289 166-289 416s60 420 291 420 289-170 289-420c0-251-60-416-291-416" id="aq"/><path fill="#666" d="M674-1118c257 0 369 132 368 401V0H860v-707c-1-164-59-259-217-260-230-2-287 167-287 398V0H174v-1098h148l26 148h10c61-100 160-168 316-168" id="ar"/><path fill="#666" d="M856-958c-21-183-9-398-12-598h182V0H879l-27-147h-8C781-52 689 20 530 20c-307 0-417-246-417-567 0-260 76-450 247-535 51-25 108-36 170-36 155 1 249 69 314 160h12zm-12 452c5-254-32-463-281-461-90 0-153 39-199 109-81 124-82 504 0 624 45 66 110 103 201 103 222 0 275-157 279-375" id="as"/><g id="p"><use transform="matrix(0.007595486111111112,0,0,0.007595486111111112,0,0)" xlink:href="#an"/><use transform="matrix(0.007595486111111112,0,0,0.007595486111111112,7.018229166666667,0)" xlink:href="#ao"/><use transform="matrix(0.007595486111111112,0,0,0.007595486111111112,15.342881944444446,0)" xlink:href="#ap"/><use transform="matrix(0.007595486111111112,0,0,0.007595486111111112,22.54340277777778,0)" xlink:href="#aq"/><use transform="matrix(0.007595486111111112,0,0,0.007595486111111112,31.521267361111114,0)" xlink:href="#ar"/><use transform="matrix(0.007595486111111112,0,0,0.007595486111111112,40.681423611111114,0)" xlink:href="#as"/><use transform="matrix(0.007595486111111112,0,0,0.007595486111111112,49.79600694444445,0)" xlink:href="#an"/></g><path fill="#4f4f4f" d="M819-1016c0-179-137-198-325-192v395c194 11 325-25 325-203zm314-8c0 203-107 315-242 387 147 235 259 413 399 637H946L629-561H494V0H184v-1462h400c346 0 549 115 549 438" id="at"/><path fill="#4f4f4f" d="M61-424v-250h537v250H61" id="au"/><path fill="#4f4f4f" d="M465-973c57-94 141-166 291-166 214 0 308 148 358 328 38 137 38 366 0 503-50 184-148 328-366 328-142 0-223-62-283-143h-21L393 0H160v-1556h305c-2 197 6 400-12 583h12zm0 377c0 188 9 369 190 369 61 0 102-31 133-87 54-98 55-402 0-498-31-54-73-83-135-83-161 1-188 138-188 299" id="av"/><g id="q"><use transform="matrix(0.01193576388888889,0,0,0.01193576388888889,0,0)" xlink:href="#at"/><use transform="matrix(0.01193576388888889,0,0,0.01193576388888889,15.397135416666668,0)" xlink:href="#B"/><use transform="matrix(0.01193576388888889,0,0,0.01193576388888889,30.042317708333336,0)" xlink:href="#z"/><use transform="matrix(0.01193576388888889,0,0,0.01193576388888889,45.36783854166667,0)" xlink:href="#C"/><use transform="matrix(0.01193576388888889,0,0,0.01193576388888889,60.69335937500001,0)" xlink:href="#N"/><use transform="matrix(0.01193576388888889,0,0,0.01193576388888889,75.55338541666667,0)" xlink:href="#au"/><use transform="matrix(0.01193576388888889,0,0,0.01193576388888889,83.41905381944446,0)" xlink:href="#O"/><use transform="matrix(0.01193576388888889,0,0,0.01193576388888889,94.02994791666669,0)" xlink:href="#B"/><use transform="matrix(0.01193576388888889,0,0,0.01193576388888889,108.67513020833336,0)" xlink:href="#av"/><use transform="matrix(0.01193576388888889,0,0,0.01193576388888889,123.53515625000003,0)" xlink:href="#A"/><use transform="matrix(0.01193576388888889,0,0,0.01193576388888889,130.99500868055557,0)" xlink:href="#C"/></g><g id="r"><use transform="matrix(0.01193576388888889,0,0,0.01193576388888889,0,0)" xlink:href="#y"/><use transform="matrix(0.01193576388888889,0,0,0.01193576388888889,12.198350694444445,0)" xlink:href="#P"/><use transform="matrix(0.01193576388888889,0,0,0.01193576388888889,27.52387152777778,0)" xlink:href="#w"/><use transform="matrix(0.01193576388888889,0,0,0.01193576388888889,41.72743055555556,0)" xlink:href="#y"/><use transform="matrix(0.01193576388888889,0,0,0.01193576388888889,53.92578125000001,0)" xlink:href="#Q"/></g><g id="s"><use transform="matrix(0.009765625,0,0,0.009765625,0,0)" xlink:href="#T"/><use transform="matrix(0.009765625,0,0,0.009765625,12.001953125,0)" xlink:href="#V"/><use transform="matrix(0.009765625,0,0,0.009765625,24.00390625,0)" xlink:href="#ad"/><use transform="matrix(0.009765625,0,0,0.009765625,36.005859375,0)" xlink:href="#U"/></g></defs></g></svg>