<svg xmlns="http://www.w3.org/2000/svg" xmlns:xlink="http://www.w3.org/1999/xlink" xmlns:lucid="lucid" width="1438.02" height="282.62"><g transform="translate(1444.238248898247 2.666666666666643)" lucid:page-tab-id="0_0"><path d="M-329.86 60.33c0-1.65 1.35-3 3-3H-29.2c1.64 0 3 1.35 3 3v151.24c0 1.66-1.36 3-3 3h-297.66c-1.65 0-3-1.34-3-3z" stroke="#fff" stroke-width="2" fill="#f0f0f0"/><use xlink:href="#a" transform="matrix(1,0,0,1,-329.8570584284562,57.33333333333336) translate(20.96 39.5546875)"/><use xlink:href="#b" transform="matrix(1,0,0,1,-329.8570584284562,57.33333333333336) translate(139.856484375 39.5546875)"/><path d="M-349.86 40.33c0-1.65 1.35-3 3-3H-49.2c1.64 0 3 1.35 3 3v151.24c0 1.66-1.36 3-3 3h-297.66c-1.65 0-3-1.34-3-3z" stroke="#fff" stroke-width="2" fill="#f0f0f0"/><use xlink:href="#a" transform="matrix(1,0,0,1,-349.8570584284562,37.33333333333336) translate(20.96 39.5546875)"/><use xlink:href="#b" transform="matrix(1,0,0,1,-349.8570584284562,37.33333333333336) translate(139.856484375 39.5546875)"/><path d="M-1070.67 20.33c0-1.65 1.35-3 3-3h506.65c1.65 0 3 1.35 3 3V251.3c0 1.64-1.35 3-3 3h-506.65c-1.65 0-3-1.36-3-3z" stroke="#000" stroke-opacity="0" fill="#f0f0f0"/><use xlink:href="#c" transform="matrix(1,0,0,1,-1070.6666666666665,17.333333333333357) translate(20.96 39.5546875)"/><use xlink:href="#d" transform="matrix(1,0,0,1,-1070.6666666666665,17.333333333333357) translate(89.06546875000001 39.5546875)"/><path d="M-369.86 20.33c0-1.65 1.35-3 3-3H-69.2c1.64 0 3 1.35 3 3v151.24c0 1.66-1.36 3-3 3h-297.66c-1.65 0-3-1.34-3-3z" stroke="#fff" stroke-width="2" fill="#f0f0f0"/><use xlink:href="#a" transform="matrix(1,0,0,1,-369.8570584284562,17.333333333333357) translate(20.96 39.5546875)"/><use xlink:href="#b" transform="matrix(1,0,0,1,-369.8570584284562,17.333333333333357) translate(139.856484375 39.5546875)"/><path d="M-317.5 87.32h197.63v53.86H-317.5z" stroke="#000" stroke-opacity="0" stroke-width="2" fill="#fff"/><use xlink:href="#e" transform="matrix(1,0,0,1,-312.4880530237515,92.3219895287963) translate(41.19970703125 28.2314453125)"/><path d="M-318.5 129.84h-267.53" stroke="#666" stroke-width="2" fill="none"/><path d="M-317.5 130.84h-1v-2h1z" fill="#666"/><path d="M-601.3 129.84l14.27-4.63v9.28z" stroke="#666" stroke-width="2" fill="#666"/><path d="M-603.54 101.02H-336" stroke="#666" stroke-width="2" fill="none"/><path d="M-603.5 102.02h-1.04v-2h1.03z" fill="#666"/><path d="M-320.73 101.02l-14.26 4.64V96.4z" stroke="#666" stroke-width="2" fill="#666"/><path d="M-543.92 137.15h147.33v24H-543.9z" stroke="#000" stroke-opacity="0" stroke-width="2" fill="#fff" fill-opacity="0"/><use xlink:href="#f" transform="matrix(1,0,0,1,-543.9237250951247,137.15065700805008) translate(23.531792534722214 14.439019097222223)"/><use xlink:href="#g" transform="matrix(1,0,0,1,-543.9237250951247,137.15065700805008) translate(78.91807725694444 14.439019097222223)"/><path d="M-558.26 69.28h176v25.34h-176z" stroke="#000" stroke-opacity="0" stroke-width="2" fill="#fff" fill-opacity="0"/><use xlink:href="#h" transform="matrix(1,0,0,1,-558.2570584284559,69.28399034138315) translate(32.450412326388886 14.439019097222223)"/><use xlink:href="#i" transform="matrix(1,0,0,1,-558.2570584284559,69.28399034138315) translate(96.92849392361111 14.439019097222223)"/><path d="M-1024.15 89.5h197.6v53.86h-197.6z" stroke="#000" stroke-opacity="0" stroke-width="2" fill="#fff"/><use xlink:href="#j" transform="matrix(1,0,0,1,-1019.1547196904185,94.50523560209457) translate(55.05126953125 28.2314453125)"/><use xlink:href="#k" transform="matrix(1,0,0,1,-1019.1547196904185,94.50523560209457) translate(103.47900390625 28.2314453125)"/><path d="M-1024.15 169.2h197.6v53.85h-197.6z" stroke="#000" stroke-opacity="0" stroke-width="2" fill="#fff"/><use xlink:href="#l" transform="matrix(1,0,0,1,-1019.1547196904185,174.19371727748734) translate(63.76123046875 28.2314453125)"/><use xlink:href="#m" transform="matrix(1,0,0,1,-1019.1547196904185,174.19371727748734) translate(104.34912109375 28.2314453125)"/><path d="M-802.15 89.5h197.6v53.86h-197.6z" stroke="#000" stroke-opacity="0" stroke-width="2" fill="#fff"/><use xlink:href="#n" transform="matrix(1,0,0,1,-797.1547196904185,94.50523560209457) translate(29.20263671875 28.2314453125)"/><use xlink:href="#k" transform="matrix(1,0,0,1,-797.1547196904185,94.50523560209457) translate(129.32763671875 28.2314453125)"/><path d="M-802.15 169.2h197.6v53.85h-197.6z" stroke="#000" stroke-opacity="0" stroke-width="2" fill="#fff"/><use xlink:href="#o" transform="matrix(1,0,0,1,-797.1547196904185,174.19371727748734) translate(1.77197265625 28.2314453125)"/><use xlink:href="#p" transform="matrix(1,0,0,1,-797.1547196904185,174.19371727748734) translate(98.54833984375 28.2314453125)"/><use xlink:href="#q" transform="matrix(1,0,0,1,-797.1547196904185,174.19371727748734) translate(141.06103515625 28.2314453125)"/><path d="M-1424.24 23.05c0-1.66 1.34-3 3-3h297.64c1.66 0 3 1.34 3 3v233.9c0 1.66-1.34 3-3 3h-297.64c-1.66 0-3-1.34-3-3z" stroke="#fff" stroke-width="2" fill="#f0f0f0"/><use xlink:href="#r" transform="matrix(1,0,0,1,-1424.238248898247,20.046023788355285) translate(20.96 39.5546875)"/><path d="M-1371.23 90.18h197.62v53.85h-197.63z" stroke="#000" stroke-opacity="0" stroke-width="2" fill="#fff"/><g><use xlink:href="#s" transform="matrix(1,0,0,1,-1366.2263019219995,95.17913238593921) translate(57.86376953125 28.2314453125)"/></g><path d="M-1371.23 169.87h197.62v53.85h-197.63z" stroke="#000" stroke-opacity="0" stroke-width="2" fill="#fff"/><g><use xlink:href="#t" transform="matrix(1,0,0,1,-1366.2263019219995,174.86761406133195) translate(58.509765625 28.2314453125)"/></g><path d="M-1172.6 196.8h73.72v-.68h56.22" stroke="#666" stroke-width="2" fill="none"/><path d="M-1172.58 197.8h-1.03v-2h1.02z" fill="#666"/><path d="M-1027.4 196.12l-14.26 4.64v-9.27z" stroke="#666" stroke-width="2" fill="#666"/><path d="M-1172.6 117.1h73.72v-.67h56.22" stroke="#666" stroke-width="2" fill="none"/><path d="M-1172.58 118.1h-1.03v-2h1.02z" fill="#666"/><path d="M-1027.4 116.43l-14.26 4.64v-9.27z" stroke="#666" stroke-width="2" fill="#666"/><defs><path fill="#4f4f4f" d="M522-1456L896-400l372-1056h394V0h-301c-7-379 15-728 30-1085L998 0H792L400-1084c15 357 37 705 30 1084H130v-1456h392" id="u"/><path fill="#4f4f4f" d="M1248-1138c106 220 104 603 2 820-91 195-274 338-542 338C281 20 86-300 86-759c0-291 115-515 296-629 182-114 467-115 648 0 94 60 166 141 218 250zM940-344c111-153 110-617 0-765-57-77-133-119-234-119s-177 41-233 118c-64 88-83 240-83 415 0 149 27 264 82 346s133 123 236 123c101 0 176-40 232-118" id="v"/><path fill="#4f4f4f" d="M1314 0h-300L430-958V0H130v-1456h300l585 960v-960h299V0" id="w"/><path fill="#4f4f4f" d="M449 0H149v-1456h300V0" id="x"/><path fill="#4f4f4f" d="M1226-1213H780V0H480v-1213H40v-243h1186v243" id="y"/><path fill="#4f4f4f" d="M1209-1016c0 219-100 334-260 407l315 595V0H942L669-533H430V0H130v-1456h541c318-3 538 141 538 440zm-300 24c-1-144-85-221-238-221H430v437h242c144 2 238-77 237-216" id="z"/><path fill="#4f4f4f" d="M1006-631H430v390h676V0H130v-1456h974v243H430v347h576v235" id="A"/><path fill="#4f4f4f" d="M130 0v-1456h448c435 14 673 299 665 762-5 285-130 500-319 606C822-31 708 0 581 0H130zm809-685c9-311-79-526-361-528H430v972h145c252-2 356-181 364-444" id="B"/><g id="a"><use transform="matrix(0.009765625,0,0,0.009765625,0,0)" xlink:href="#u"/><use transform="matrix(0.009765625,0,0,0.009765625,17.51953125,0)" xlink:href="#v"/><use transform="matrix(0.009765625,0,0,0.009765625,31.328125,0)" xlink:href="#w"/><use transform="matrix(0.009765625,0,0,0.009765625,45.44921875,0)" xlink:href="#x"/><use transform="matrix(0.009765625,0,0,0.009765625,50.99609375,0)" xlink:href="#y"/><use transform="matrix(0.009765625,0,0,0.009765625,63.095703125,0)" xlink:href="#v"/><use transform="matrix(0.009765625,0,0,0.009765625,76.904296875,0)" xlink:href="#z"/><use transform="matrix(0.009765625,0,0,0.009765625,89.66796875,0)" xlink:href="#A"/><use transform="matrix(0.009765625,0,0,0.009765625,100.91796875,0)" xlink:href="#B"/></g><path fill="#4f4f4f" d="M658-217c127 0 227-49 227-165 0-57-21-98-60-130-79-64-370-142-463-196-162-95-248-210-248-361 0-280 246-403 537-407 213-3 383 84 467 216 45 69 68 147 68 234H886c0-139-96-211-240-211-129 0-232 55-232 169 0 47 24 87 72 119s117 62 210 90c171 51 295 115 373 191s117 171 117 284c-2 272-237 411-528 404C331 13 78-135 69-458h301c0 161 96 241 288 241" id="C"/><g id="b"><use transform="matrix(0.009765625,0,0,0.009765625,0,0)" xlink:href="#A"/><use transform="matrix(0.009765625,0,0,0.009765625,11.25,0)" xlink:href="#w"/><use transform="matrix(0.009765625,0,0,0.009765625,25.087890625,0)" xlink:href="#y"/><use transform="matrix(0.009765625,0,0,0.009765625,37.4609375,0)" xlink:href="#x"/><use transform="matrix(0.009765625,0,0,0.009765625,43.0078125,0)" xlink:href="#y"/><use transform="matrix(0.009765625,0,0,0.009765625,55.380859375,0)" xlink:href="#x"/><use transform="matrix(0.009765625,0,0,0.009765625,61.2109375,0)" xlink:href="#A"/><use transform="matrix(0.009765625,0,0,0.009765625,72.4609375,0)" xlink:href="#C"/></g><path fill="#4f4f4f" d="M416-495c-3 181 88 274 258 274 169 0 257-89 257-266v-969h301v959c3 324-227 517-558 517-328 0-557-188-558-506v-970h300v961" id="D"/><g id="c"><use transform="matrix(0.009765625,0,0,0.009765625,0,0)" xlink:href="#C"/><use transform="matrix(0.009765625,0,0,0.009765625,12.294921875,0)" xlink:href="#A"/><use transform="matrix(0.009765625,0,0,0.009765625,23.544921875,0)" xlink:href="#w"/><use transform="matrix(0.009765625,0,0,0.009765625,37.666015625,0)" xlink:href="#C"/><use transform="matrix(0.009765625,0,0,0.009765625,49.9609375,0)" xlink:href="#D"/></g><path fill="#4f4f4f" d="M1212-428C1211-131 1004 0 696 0H130v-1456h510c318-1 539 108 539 399 0 155-89 264-208 308 141 33 242 151 241 321zM687-241c132 2 225-65 225-190 0-133-69-203-207-203H430v393h257zm192-786c0-145-86-186-239-186H430v367h222c151-3 227-63 227-181" id="E"/><path fill="#4f4f4f" d="M952-300H426L326 0H7l542-1456h278L1372 0h-319zM507-543h364l-183-545" id="F"/><path fill="#4f4f4f" d="M687-225c189-1 272-84 286-260h300c-19 311-251 505-586 505C296 20 86-277 86-686c0-466 174-782 605-790 340-6 557 198 584 514H975c-15-183-92-268-284-268-100 0-173 38-225 108-63 84-76 264-76 443 0 157 24 272 72 345s122 109 225 109" id="G"/><path fill="#4f4f4f" d="M586-584L430-416V0H130v-1456h300v660c161-226 335-440 503-660h369L785-809 1317 0H960" id="H"/><g id="d"><use transform="matrix(0.009765625,0,0,0.009765625,0,0)" xlink:href="#E"/><use transform="matrix(0.009765625,0,0,0.009765625,12.763671875,0)" xlink:href="#F"/><use transform="matrix(0.009765625,0,0,0.009765625,26.220703125,0)" xlink:href="#G"/><use transform="matrix(0.009765625,0,0,0.009765625,39.306640625,0)" xlink:href="#H"/><use transform="matrix(0.009765625,0,0,0.009765625,52.001953125,0)" xlink:href="#A"/><use transform="matrix(0.009765625,0,0,0.009765625,63.251953125,0)" xlink:href="#w"/><use transform="matrix(0.009765625,0,0,0.009765625,77.373046875,0)" xlink:href="#B"/></g><path fill="#5380d1" d="M518-913c-85-3-135 42-110 117 96 111 309 141 412 247 51 53 87 114 85 217C900-74 714 17 451 20 309 22 197-1 100-45v-252c100 47 213 89 351 94 97 3 174-39 147-137-20-36-53-53-98-78C329-513 87-555 98-827c9-232 182-312 420-312 155 0 260 38 375 92l-92 216c-88-39-170-78-283-82" id="I"/><path fill="#5380d1" d="M805-686c-5-136-57-236-193-236-128 0-189 96-196 236h389zm223 627C927-5 807 23 651 20c-359-7-549-205-549-571 0-358 158-588 508-588 318 0 476 187 482 508v148H410c8 169 89 274 262 276 149 2 255-38 356-88v236" id="J"/><path fill="#5380d1" d="M766-1139c252 0 364 153 364 410V0H825v-653c-2-140-28-242-153-242-188 0-207 177-207 369V0H160v-1118h233l41 143h17c59-101 160-164 315-164" id="K"/><path fill="#5380d1" d="M612-223c188 0 207-177 207-369v-526h305V0H891l-41-143h-16C774-43 673 20 518 20c-251 0-364-152-364-409v-729h305v653c2 140 28 242 153 242" id="L"/><path fill="#5380d1" d="M61-424v-250h537v250H61" id="M"/><path fill="#5380d1" d="M590-1141c273 0 433 125 432 396V0H809l-59-152h-9C668-49 580 25 403 20 190 14 86-114 86-334c0-265 181-343 455-356l178-6v-84c1-94-58-135-152-135-112 0-196 37-278 77l-99-202c105-58 242-101 400-101zm-68 938c131 0 194-88 197-223v-92c-169 0-320 14-320 186 0 87 44 129 123 129" id="N"/><path fill="#5380d1" d="M958-750c0 287-215 410-516 373-23 21-43 40-43 80 0 65 84 66 154 66h174c217 1 346 94 346 311 0 316-268 412-598 412-204 0-358-51-427-181-20-38-28-81-28-129C20 17 134-50 268-84c-59-30-116-78-116-162 0-108 74-145 143-190-112-47-193-164-191-320 4-261 163-383 428-383 60 0 123 12 173 23h380v166l-163 51c25 42 36 87 36 149zM602 20c-155-5-314-10-317 138-4 179 338 139 439 85 53-28 79-69 79-118 0-102-85-101-201-105zm66-772c0-110-30-196-136-196-91 0-137 65-137 196 0 109 35 191 137 191 105 0 136-80 136-191" id="O"/><path fill="#5380d1" d="M498-350c-2 81 42 126 116 127 66 1 116-17 168-35v227C722-1 631 20 537 20c-238 0-345-128-344-370v-539H47v-129l168-102 88-236h195v238h272v229H498v539" id="P"/><g id="e"><use transform="matrix(0.0087890625,0,0,0.0087890625,0,0)" xlink:href="#I"/><use transform="matrix(0.0087890625,0,0,0.0087890625,8.6572265625,0)" xlink:href="#J"/><use transform="matrix(0.0087890625,0,0,0.0087890625,19.1162109375,0)" xlink:href="#K"/><use transform="matrix(0.0087890625,0,0,0.0087890625,30.4013671875,0)" xlink:href="#I"/><use transform="matrix(0.0087890625,0,0,0.0087890625,39.05859375,0)" xlink:href="#L"/><use transform="matrix(0.0087890625,0,0,0.0087890625,50.34375,0)" xlink:href="#M"/><use transform="matrix(0.0087890625,0,0,0.0087890625,56.1357421875,0)" xlink:href="#N"/><use transform="matrix(0.0087890625,0,0,0.0087890625,66.4716796875,0)" xlink:href="#O"/><use transform="matrix(0.0087890625,0,0,0.0087890625,76.4033203125,0)" xlink:href="#J"/><use transform="matrix(0.0087890625,0,0,0.0087890625,86.8623046875,0)" xlink:href="#K"/><use transform="matrix(0.0087890625,0,0,0.0087890625,98.1474609375,0)" xlink:href="#P"/></g><path fill="#666" d="M352-897c71-121 155-243 362-219 24 3 45 5 62 8l-24 168c-258-57-396 105-396 348V0H174v-1098h148l22 201h8" id="Q"/><path fill="#666" d="M944-53C850-7 748 24 608 20c-333-9-495-220-495-561 0-264 92-451 269-538 104-51 258-51 363-3 158 72 246 228 248 455v113H301c6 236 86 371 309 375 139 2 240-31 334-76v162zM797-662c-2-176-59-305-234-305-171 0-246 129-258 305h492" id="R"/><path fill="#666" d="M371-324c1 116 27 195 135 195 53 0 108-9 149-21v138C608 8 544 19 477 20c-210 0-290-128-289-344v-637H33v-81l155-78 78-230h105v252h276v137H371v637" id="S"/><path fill="#666" d="M563-131c230 1 287-166 287-397v-570h182V0H885l-27-147h-10C788-46 687 18 532 20c-259 3-368-141-368-401v-717h182v707c0 164 60 259 217 260" id="T"/><path fill="#666" d="M674-1118c257 0 369 132 368 401V0H860v-707c-1-164-59-259-217-260-230-2-287 167-287 398V0H174v-1098h148l26 148h10c61-100 160-168 316-168" id="U"/><path fill="#666" d="M481-967c-140-5-232 63-189 190 66 110 246 141 360 208 97 57 179 119 179 268C831-65 655 18 414 20 275 21 175-1 90-49v-166c89 44 194 82 324 86 154 5 272-60 229-214-87-145-336-165-454-283-49-49-83-106-83-201 0-211 164-288 381-291 135-2 236 33 330 76l-63 147c-79-33-167-68-273-72" id="V"/><g id="f"><use transform="matrix(0.007595486111111112,0,0,0.007595486111111112,0,0)" xlink:href="#Q"/><use transform="matrix(0.007595486111111112,0,0,0.007595486111111112,6.205512152777779,0)" xlink:href="#R"/><use transform="matrix(0.007595486111111112,0,0,0.007595486111111112,14.530164930555557,0)" xlink:href="#S"/><use transform="matrix(0.007595486111111112,0,0,0.007595486111111112,19.801432291666668,0)" xlink:href="#T"/><use transform="matrix(0.007595486111111112,0,0,0.007595486111111112,28.96158854166667,0)" xlink:href="#Q"/><use transform="matrix(0.007595486111111112,0,0,0.007595486111111112,35.16710069444445,0)" xlink:href="#U"/><use transform="matrix(0.007595486111111112,0,0,0.007595486111111112,44.32725694444445,0)" xlink:href="#V"/></g><path fill="#666" d="M375 0L0-1098h188c101 324 219 632 299 977h7c80-346 198-653 299-977h188L606 0H375" id="W"/><g id="g"><use transform="matrix(0.007595486111111112,0,0,0.007595486111111112,0,0)" xlink:href="#R"/><use transform="matrix(0.007595486111111112,0,0,0.007595486111111112,8.324652777777779,0)" xlink:href="#W"/><use transform="matrix(0.007595486111111112,0,0,0.007595486111111112,15.775824652777779,0)" xlink:href="#R"/><use transform="matrix(0.007595486111111112,0,0,0.007595486111111112,24.100477430555557,0)" xlink:href="#U"/><use transform="matrix(0.007595486111111112,0,0,0.007595486111111112,33.26063368055556,0)" xlink:href="#S"/><use transform="matrix(0.007595486111111112,0,0,0.007595486111111112,38.53190104166667,0)" xlink:href="#V"/></g><path fill="#666" d="M844-506c5-254-32-463-281-461-90 0-153 39-199 109-81 124-82 504 0 624 45 66 110 103 201 103 222 0 275-157 279-375zm0 359C781-52 689 20 530 20c-307 0-417-246-417-567 0-260 76-450 247-535 51-25 108-36 170-36 158 2 250 73 314 168h8l27-148h147V492H844c4-214-10-443 12-639h-12" id="X"/><g id="h"><use transform="matrix(0.007595486111111112,0,0,0.007595486111111112,0,0)" xlink:href="#Q"/><use transform="matrix(0.007595486111111112,0,0,0.007595486111111112,6.205512152777779,0)" xlink:href="#R"/><use transform="matrix(0.007595486111111112,0,0,0.007595486111111112,14.530164930555557,0)" xlink:href="#X"/><use transform="matrix(0.007595486111111112,0,0,0.007595486111111112,23.644748263888893,0)" xlink:href="#T"/><use transform="matrix(0.007595486111111112,0,0,0.007595486111111112,32.80490451388889,0)" xlink:href="#R"/><use transform="matrix(0.007595486111111112,0,0,0.007595486111111112,41.12955729166667,0)" xlink:href="#V"/><use transform="matrix(0.007595486111111112,0,0,0.007595486111111112,48.147786458333336,0)" xlink:href="#S"/><use transform="matrix(0.007595486111111112,0,0,0.007595486111111112,53.41905381944445,0)" xlink:href="#V"/></g><path fill="#666" d="M860-39C784 1 712 22 594 20c-333-6-481-218-481-563 0-354 148-568 489-575 100-2 211 26 277 59l-54 154c-63-26-137-53-223-53-235 0-301 158-301 413 0 251 67 400 293 406 107 3 193-30 266-62v162" id="Y"/><path fill="#666" d="M674-1118c257 0 369 132 368 401V0H860v-707c-1-164-59-259-217-260-230-2-287 167-287 398V0H174v-1556h182c-2 202 6 416-8 606h10c61-100 160-168 316-168" id="Z"/><path fill="#666" d="M342-567c141-179 285-354 428-531h211L580-623 1008 0H799L463-504l-109 82V0H174v-1556h180c-3 332 10 680-16 989h4" id="aa"/><g id="i"><use transform="matrix(0.007595486111111112,0,0,0.007595486111111112,0,0)" xlink:href="#Y"/><use transform="matrix(0.007595486111111112,0,0,0.007595486111111112,7.200520833333334,0)" xlink:href="#Z"/><use transform="matrix(0.007595486111111112,0,0,0.007595486111111112,16.360677083333336,0)" xlink:href="#R"/><use transform="matrix(0.007595486111111112,0,0,0.007595486111111112,24.685329861111114,0)" xlink:href="#Y"/><use transform="matrix(0.007595486111111112,0,0,0.007595486111111112,31.885850694444446,0)" xlink:href="#aa"/><use transform="matrix(0.007595486111111112,0,0,0.007595486111111112,39.60286458333334,0)" xlink:href="#V"/></g><path fill="#5380d1" d="M1300 0H991v-631H494V0H184v-1462h310v573h497v-573h309V0" id="ab"/><path fill="#5380d1" d="M717 0H408v-1204H41v-258h1042v258H717V0" id="ac"/><path fill="#5380d1" d="M819-995c0-183-129-224-325-213v434c196 9 325-35 325-221zm-229-467c333 2 543 129 543 456 0 360-248 501-639 486V0H184v-1462h406" id="ad"/><g id="j"><use transform="matrix(0.0087890625,0,0,0.0087890625,0,0)" xlink:href="#ab"/><use transform="matrix(0.0087890625,0,0,0.0087890625,13.0517578125,0)" xlink:href="#ac"/><use transform="matrix(0.0087890625,0,0,0.0087890625,23.1064453125,0)" xlink:href="#ac"/><use transform="matrix(0.0087890625,0,0,0.0087890625,32.9853515625,0)" xlink:href="#ad"/></g><path fill="#5380d1" d="M1018 0L918-348H414L313 0H0l475-1468h379L1331 0h-313zM846-608c-60-218-134-421-180-654-48 230-116 438-177 654h357" id="ae"/><path fill="#5380d1" d="M731 0H66v-176l178-82v-946l-178-82v-176h665v176l-178 82v946l178 82V0" id="af"/><g id="k"><use transform="matrix(0.0087890625,0,0,0.0087890625,0,0)" xlink:href="#ae"/><use transform="matrix(0.0087890625,0,0,0.0087890625,11.6982421875,0)" xlink:href="#ad"/><use transform="matrix(0.0087890625,0,0,0.0087890625,22.46484375,0)" xlink:href="#af"/></g><path fill="#5380d1" d="M1014 0c-68-300-129-595-189-905h-6C763-591 702-296 629 0H301L0-1118h303c64 289 139 565 176 882h6c30-323 113-591 174-882h336c58 292 138 561 168 882h6c38-316 117-594 183-882h299L1346 0h-332" id="ag"/><path fill="#5380d1" d="M465-973c57-94 141-166 291-166 214 0 308 148 358 328 38 137 38 366 0 503-50 184-148 328-366 328-142 0-223-62-283-143h-21L393 0H160v-1556h305c-2 197 6 400-12 583h12zm0 377c0 188 9 369 190 369 61 0 102-31 133-87 54-98 55-402 0-498-31-54-73-83-135-83-161 1-188 138-188 299" id="ah"/><g id="l"><use transform="matrix(0.0087890625,0,0,0.0087890625,0,0)" xlink:href="#ag"/><use transform="matrix(0.0087890625,0,0,0.0087890625,14.5107421875,0)" xlink:href="#J"/><use transform="matrix(0.0087890625,0,0,0.0087890625,24.9697265625,0)" xlink:href="#ah"/></g><path fill="#5380d1" d="M735-240c186-1 248-112 248-305v-917h309v946c-10 350-208 536-565 536-354 0-553-190-553-540v-942h309v919c-1 189 65 304 252 303" id="ai"/><g id="m"><use transform="matrix(0.0087890625,0,0,0.0087890625,0,0)" xlink:href="#ai"/><use transform="matrix(0.0087890625,0,0,0.0087890625,12.884765625,0)" xlink:href="#af"/></g><path fill="#5380d1" d="M1546 0h-352c-84-358-190-694-246-1079C894-692 787-359 705 0H352L0-1462h305c81 400 172 791 238 1206 19-128 37-267 67-387l203-819h272c93 399 210 775 271 1206 64-417 157-805 237-1206h305" id="aj"/><path fill="#5380d1" d="M575-1225c-123-5-198 106-149 217 37 85 130 114 217 164 168 97 342 180 342 438 0 295-202 426-504 426-152 0-284-33-387-88v-288c118 53 234 120 398 120 115 0 190-43 190-155 0-146-139-181-242-240-159-90-329-188-329-436 0-313 235-447 565-409 116 14 211 53 303 96l-100 241c-93-41-177-81-304-86" id="ak"/><path fill="#5380d1" d="M612-893c-166 0-198 142-198 332 0 111 16 195 47 251s82 85 153 85c166 0 199-148 199-336 0-191-32-332-201-332zM102-561c0-355 164-578 514-578 341 0 508 230 508 578 0 356-164 581-514 581-341 0-508-232-508-581" id="al"/><path fill="#5380d1" d="M924-53c-85 42-173 74-299 73-359-3-522-207-523-573-1-378 152-588 523-586 127 1 241 34 331 80l-88 232c-74-31-150-66-243-66-173 0-211 143-211 338 0 193 38 328 207 328 128 0 209-38 303-80v254" id="am"/><path fill="#5380d1" d="M453-608l112-170 273-340h344L778-633 1208 0H856L584-430l-119 82V0H160v-1556h305v694l-16 254h4" id="an"/><g id="n"><use transform="matrix(0.0087890625,0,0,0.0087890625,0,0)" xlink:href="#aj"/><use transform="matrix(0.0087890625,0,0,0.0087890625,16.3212890625,0)" xlink:href="#J"/><use transform="matrix(0.0087890625,0,0,0.0087890625,26.7802734375,0)" xlink:href="#ah"/><use transform="matrix(0.0087890625,0,0,0.0087890625,37.72265625,0)" xlink:href="#ak"/><use transform="matrix(0.0087890625,0,0,0.0087890625,47.1533203125,0)" xlink:href="#al"/><use transform="matrix(0.0087890625,0,0,0.0087890625,57.9375,0)" xlink:href="#am"/><use transform="matrix(0.0087890625,0,0,0.0087890625,66.919921875,0)" xlink:href="#an"/><use transform="matrix(0.0087890625,0,0,0.0087890625,77.537109375,0)" xlink:href="#J"/><use transform="matrix(0.0087890625,0,0,0.0087890625,87.99609375,0)" xlink:href="#P"/></g><path fill="#5380d1" d="M1321-895c-168 0-201 148-201 334V0H815v-653c-1-138-28-242-149-242-184 0-201 180-201 369V0H160v-1118h233l41 143h17c57-100 155-164 307-164 159 0 265 54 319 164h25c57-100 159-164 311-164 256 0 363 139 363 410V0h-306v-653c-1-138-28-242-149-242" id="ao"/><path fill="#5380d1" d="M780-145C722-51 639 20 489 20c-296 0-387-264-387-577 0-260 69-456 235-545 48-26 102-37 161-37 150 1 235 72 295 164h10c-34-168-20-382-23-581h305V0H852l-59-145h-13zm21-377c0-193-14-368-203-369-64 0-108 31-141 87-57 98-58 402 1 498 33 54 77 83 142 83 166 0 201-133 201-299" id="ap"/><g id="o"><use transform="matrix(0.0087890625,0,0,0.0087890625,0,0)" xlink:href="#J"/><use transform="matrix(0.0087890625,0,0,0.0087890625,10.458984375,0)" xlink:href="#ao"/><use transform="matrix(0.0087890625,0,0,0.0087890625,27.4130859375,0)" xlink:href="#ah"/><use transform="matrix(0.0087890625,0,0,0.0087890625,38.35546875,0)" xlink:href="#J"/><use transform="matrix(0.0087890625,0,0,0.0087890625,48.814453125,0)" xlink:href="#ap"/><use transform="matrix(0.0087890625,0,0,0.0087890625,59.7568359375,0)" xlink:href="#ap"/><use transform="matrix(0.0087890625,0,0,0.0087890625,70.69921875,0)" xlink:href="#J"/><use transform="matrix(0.0087890625,0,0,0.0087890625,81.158203125,0)" xlink:href="#ap"/></g><g id="p"><use transform="matrix(0.0087890625,0,0,0.0087890625,0,0)" xlink:href="#J"/><use transform="matrix(0.0087890625,0,0,0.0087890625,10.458984375,0)" xlink:href="#P"/><use transform="matrix(0.0087890625,0,0,0.0087890625,17.912109375,0)" xlink:href="#am"/><use transform="matrix(0.0087890625,0,0,0.0087890625,26.89453125,0)" xlink:href="#ap"/></g><path fill="#5380d1" d="M451-950c59-103 132-188 292-189 34 0 70 3 97 9v286c-30-7-71-10-107-10-182 1-269 99-268 285V0H160v-1118h231l45 168h15" id="aq"/><g id="q"><use transform="matrix(0.0087890625,0,0,0.0087890625,0,0)" xlink:href="#I"/><use transform="matrix(0.0087890625,0,0,0.0087890625,8.6572265625,0)" xlink:href="#P"/><use transform="matrix(0.0087890625,0,0,0.0087890625,16.1103515625,0)" xlink:href="#al"/><use transform="matrix(0.0087890625,0,0,0.0087890625,26.89453125,0)" xlink:href="#aq"/><use transform="matrix(0.0087890625,0,0,0.0087890625,34.7080078125,0)" xlink:href="#J"/></g><path fill="#4f4f4f" d="M1264-420l196-1036h299L1436 0h-302L897-974 660 0H358L35-1456h299L531-422l240-1034h254" id="ar"/><g id="r"><use transform="matrix(0.009765625,0,0,0.009765625,0,0)" xlink:href="#ar"/><use transform="matrix(0.009765625,0,0,0.009765625,17.490234375,0)" xlink:href="#v"/><use transform="matrix(0.009765625,0,0,0.009765625,31.298828125,0)" xlink:href="#z"/><use transform="matrix(0.009765625,0,0,0.009765625,44.0625,0)" xlink:href="#H"/><use transform="matrix(0.009765625,0,0,0.009765625,56.7578125,0)" xlink:href="#C"/><use transform="matrix(0.009765625,0,0,0.009765625,69.052734375,0)" xlink:href="#y"/><use transform="matrix(0.009765625,0,0,0.009765625,80.25390625,0)" xlink:href="#F"/><use transform="matrix(0.009765625,0,0,0.009765625,93.7109375,0)" xlink:href="#y"/><use transform="matrix(0.009765625,0,0,0.009765625,106.083984375,0)" xlink:href="#x"/><use transform="matrix(0.009765625,0,0,0.009765625,111.9140625,0)" xlink:href="#v"/><use transform="matrix(0.009765625,0,0,0.009765625,125.72265625,0)" xlink:href="#w"/></g><path fill="#5380d1" d="M465 0H160v-1556h305V0" id="as"/><g id="s"><use transform="matrix(0.0087890625,0,0,0.0087890625,0,0)" xlink:href="#I"/><use transform="matrix(0.0087890625,0,0,0.0087890625,8.6572265625,0)" xlink:href="#J"/><use transform="matrix(0.0087890625,0,0,0.0087890625,19.1162109375,0)" xlink:href="#K"/><use transform="matrix(0.0087890625,0,0,0.0087890625,30.4013671875,0)" xlink:href="#I"/><use transform="matrix(0.0087890625,0,0,0.0087890625,39.05859375,0)" xlink:href="#L"/><use transform="matrix(0.0087890625,0,0,0.0087890625,50.34375,0)" xlink:href="#am"/><use transform="matrix(0.0087890625,0,0,0.0087890625,59.326171875,0)" xlink:href="#P"/><use transform="matrix(0.0087890625,0,0,0.0087890625,66.779296875,0)" xlink:href="#as"/></g><g id="t"><use transform="matrix(0.0087890625,0,0,0.0087890625,0,0)" xlink:href="#ah"/><use transform="matrix(0.0087890625,0,0,0.0087890625,10.9423828125,0)" xlink:href="#aq"/><use transform="matrix(0.0087890625,0,0,0.0087890625,18.755859375,0)" xlink:href="#al"/><use transform="matrix(0.0087890625,0,0,0.0087890625,29.5400390625,0)" xlink:href="#ag"/><use transform="matrix(0.0087890625,0,0,0.0087890625,44.05078125,0)" xlink:href="#I"/><use transform="matrix(0.0087890625,0,0,0.0087890625,52.7080078125,0)" xlink:href="#J"/><use transform="matrix(0.0087890625,0,0,0.0087890625,63.1669921875,0)" xlink:href="#aq"/></g></defs></g></svg>